<?xml version="1.0" standalone="no"?>
<!DOCTYPE svg PUBLIC "-//W3C//DTD SVG 20010904//EN"
 "http://www.w3.org/TR/2001/REC-SVG-20010904/DTD/svg10.dtd">
<svg version="1.0" xmlns="http://www.w3.org/2000/svg"
 width="721.000000pt" height="721.000000pt" viewBox="0 0 721.000000 721.000000"
 preserveAspectRatio="xMidYMid meet">
<metadata>
Created by potrace 1.11, written by Peter Selinger 2001-2013
</metadata>
<g transform="translate(0.000000,721.000000) scale(0.100000,-0.100000)"
fill="#000000" stroke="none">
<path d="M36 7148 c-3 -34 -2 -66 2 -70 5 -5 59 -22 120 -38 62 -17 127 -37
145 -45 17 -8 77 -24 131 -36 93 -20 102 -24 135 -62 67 -76 71 -79 86 -67 34
29 24 59 -35 100 -48 34 -60 46 -60 64 0 19 -2 19 50 1 64 -23 69 -21 76 35 7
50 8 51 37 48 25 -2 34 2 44 22 18 36 17 110 -2 110 -9 0 -15 -9 -15 -21 0
-11 -13 -34 -30 -51 -16 -16 -30 -34 -30 -39 0 -16 -39 -10 -49 9 -5 10 -6 36
-1 60 l7 42 -103 0 -103 0 -28 -37 c-50 -68 -105 -133 -112 -133 -8 0 -6 40 4
128 l5 42 -134 0 -133 0 -7 -62z"/>
<path d="M2320 7204 c0 -8 32 -33 42 -34 4 0 12 9 18 20 10 18 8 20 -25 20
-19 0 -35 -3 -35 -6z"/>
<path d="M3346 7183 c4 -16 12 -41 20 -58 7 -16 18 -48 23 -70 13 -51 64 -101
112 -109 32 -6 42 -2 88 36 55 45 135 155 145 201 l6 27 -200 0 -200 0 6 -27z"/>
<path d="M3860 7196 c0 -22 26 -39 37 -24 25 33 24 38 -6 38 -20 0 -31 -5 -31
-14z"/>
<path d="M4685 7205 c25 -8 115 -11 115 -4 0 5 -28 9 -62 8 -35 0 -58 -2 -53
-4z"/>
<path d="M4810 7201 c0 -17 29 -32 86 -42 108 -20 144 -31 144 -45 0 -8 -7
-14 -16 -14 -31 0 -104 -54 -104 -76 0 -28 30 -54 62 -54 37 0 82 61 74 101
-5 25 -3 29 18 29 13 0 29 -7 37 -16 10 -12 23 -14 56 -9 30 4 53 1 78 -10 39
-19 59 -20 130 -7 28 6 72 8 99 4 42 -4 50 -9 61 -36 12 -27 15 -28 21 -13 5
15 14 17 39 13 26 -5 37 -1 60 21 26 26 32 28 117 28 82 0 91 -2 109 -24 23
-28 24 -45 4 -64 -8 -9 -18 -40 -21 -71 -5 -43 -3 -61 10 -81 42 -64 82 -80
126 -53 36 23 56 0 130 -149 17 -35 35 -63 40 -63 5 0 12 -10 16 -22 4 -13 13
-27 20 -33 7 -5 42 -59 77 -120 36 -60 85 -137 109 -169 65 -90 153 -250 173
-316 4 -14 23 -57 41 -97 19 -40 34 -74 34 -77 0 -3 14 -35 30 -71 17 -36 30
-77 30 -91 0 -43 36 -84 74 -84 18 0 41 -7 52 -15 32 -24 121 -19 179 11 96
48 119 63 162 106 l43 42 0 788 0 788 -1200 0 c-682 0 -1200 -4 -1200 -9z
m1847 -33 c-3 -7 -5 -2 -5 12 0 14 2 19 5 13 2 -7 2 -19 0 -25z m55 -113 c6
-28 -6 -34 -16 -9 -8 22 -7 34 3 34 5 0 11 -11 13 -25z m-598 -130 c22 -16 28
-85 9 -92 -9 -3 -13 6 -13 26 0 24 -6 34 -25 41 -16 6 -23 14 -19 25 8 19 23
19 48 0z m731 -524 c3 -5 -16 -20 -41 -33 -25 -12 -52 -31 -59 -41 -8 -12 -15
-15 -20 -8 -18 30 38 88 76 78 10 -3 19 -1 19 4 0 12 17 12 25 0z m183 -282
c-18 -12 -23 8 -6 28 12 15 13 15 16 -2 2 -10 -2 -21 -10 -26z m-138 -194
c-26 -27 -42 -33 -34 -11 4 11 37 33 53 35 3 1 -6 -10 -19 -24z m160 -252 c0
-10 -5 -25 -10 -33 -7 -11 -10 -7 -10 18 0 17 5 32 10 32 6 0 10 -8 10 -17z"/>
<path d="M1554 7176 c-6 -17 11 -46 28 -46 14 0 5 53 -9 58 -7 2 -16 -4 -19
-12z"/>
<path d="M1751 7166 c-10 -12 -8 -19 8 -35 24 -24 37 -26 44 -8 4 13 -21 57
-33 57 -4 0 -13 -6 -19 -14z"/>
<path d="M2446 7099 c-22 -31 -21 -61 1 -57 23 4 41 54 26 69 -8 8 -15 4 -27
-12z"/>
<path d="M3722 7098 c-18 -18 -15 -40 6 -36 9 2 18 13 20 26 4 24 -7 29 -26
10z"/>
<path d="M1142 7091 c-10 -6 -10 -10 2 -20 10 -9 16 -9 21 -1 10 16 -7 31 -23
21z"/>
<path d="M1890 7060 c0 -24 22 -50 41 -50 16 0 20 5 17 28 -2 21 -9 28 -30 30
-16 2 -28 -2 -28 -8z"/>
<path d="M2670 6989 c0 -5 5 -7 10 -4 6 3 10 8 10 11 0 2 -4 4 -10 4 -5 0 -10
-5 -10 -11z"/>
<path d="M4233 6973 c-33 -22 -28 -33 7 -20 17 6 30 17 30 24 0 17 -10 16 -37
-4z"/>
<path d="M1195 6960 c-7 -12 2 -30 16 -30 5 0 9 9 9 20 0 21 -15 27 -25 10z"/>
<path d="M4261 6927 c-5 -13 -25 -39 -45 -59 -26 -26 -36 -45 -37 -69 -1 -19
-4 -45 -8 -59 -8 -28 -41 -41 -41 -16 0 13 -3 14 -19 4 -18 -11 -18 -13 7 -45
15 -18 34 -33 43 -33 23 0 30 -24 23 -70 -5 -31 -1 -45 20 -76 15 -22 29 -56
32 -76 4 -21 12 -38 18 -38 7 0 17 -5 24 -12 16 -16 124 -17 137 0 6 7 18 14
28 16 10 1 34 34 59 82 40 76 42 82 41 169 0 50 -4 107 -8 129 -7 34 -6 38 11
32 26 -8 36 1 69 57 23 40 26 51 14 58 -20 13 -40 11 -73 -6 -26 -14 -34 -14
-76 0 -26 9 -59 13 -77 9 -19 -4 -42 0 -61 10 -44 23 -71 20 -81 -7z m80 -286
c-45 -62 -108 -124 -119 -117 -17 11 -15 46 3 46 9 0 37 23 64 50 53 55 85 68
52 21z m-16 -140 c-20 -20 -33 -6 -33 35 l0 37 23 -29 c20 -24 21 -31 10 -43z"/>
<path d="M1050 6896 c0 -14 5 -28 10 -31 6 -4 10 7 10 24 0 17 -4 31 -10 31
-5 0 -10 -11 -10 -24z"/>
<path d="M882 6853 c-6 -2 -10 -9 -6 -14 8 -14 21 -11 28 6 6 15 1 17 -22 8z"/>
<path d="M1229 6792 c9 -34 31 -41 31 -9 0 16 -7 26 -19 30 -16 4 -18 1 -12
-21z"/>
<path d="M2504 6809 c-3 -6 -1 -16 5 -22 8 -8 11 -5 11 11 0 24 -5 28 -16 11z"/>
<path d="M3492 6772 c-56 -48 -55 -79 2 -99 37 -12 58 -32 81 -78 7 -13 19
-19 33 -17 12 2 34 -6 47 -17 14 -10 43 -22 65 -26 28 -5 37 -11 33 -21 -9
-23 14 -16 36 12 29 36 26 51 -13 88 -18 17 -39 42 -46 55 -11 21 -17 23 -56
17 -47 -6 -56 3 -23 25 28 19 18 39 -37 72 -38 23 -44 24 -42 10 2 -12 -4 -19
-19 -21 -25 -4 -30 7 -11 26 28 28 -11 8 -50 -26z"/>
<path d="M5040 6795 c-10 -12 -10 -19 -2 -27 17 -17 37 5 25 27 -9 15 -11 15
-23 0z"/>
<path d="M586 6760 c5 -32 3 -45 -12 -61 -18 -20 -18 -20 -39 16 -26 42 -32
39 -27 -14 5 -51 35 -84 72 -79 24 4 29 0 34 -22 2 -15 -2 -47 -10 -71 -10
-28 -14 -62 -10 -94 3 -27 6 -65 6 -84 0 -19 2 -32 4 -30 4 4 19 117 31 224 2
22 7 59 10 83 4 24 2 49 -3 55 -5 7 -13 30 -17 52 -12 70 -50 94 -39 25z"/>
<path d="M5468 6789 c-23 -13 -23 -45 -2 -53 22 -9 44 11 44 40 0 26 -14 30
-42 13z"/>
<path d="M3805 6757 c-4 -10 -5 -21 -1 -24 10 -10 18 4 13 24 -4 17 -4 17 -12
0z"/>
<path d="M5677 6717 c-2 -7 1 -28 7 -47 14 -44 55 -54 80 -18 24 34 20 46 -20
63 -44 18 -60 19 -67 2z"/>
<path d="M260 6706 c0 -2 9 -6 20 -9 11 -3 20 -1 20 4 0 5 -9 9 -20 9 -11 0
-20 -2 -20 -4z"/>
<path d="M5410 6670 c-19 -4 -46 -12 -60 -17 -14 -6 -50 -13 -80 -17 -79 -10
-155 -55 -164 -97 -9 -48 -7 -90 8 -149 7 -30 17 -81 21 -113 7 -65 31 -89 87
-89 38 0 118 30 118 44 0 5 13 23 30 41 33 35 48 65 107 207 l10 25 7 -22 c14
-45 46 -22 46 33 0 27 -27 33 -37 8 -10 -27 -23 7 -17 43 7 36 -11 99 -29 105
-7 3 -28 1 -47 -2z"/>
<path d="M843 6645 c0 -30 5 -31 23 -7 18 24 17 32 -5 32 -13 0 -18 -7 -18
-25z"/>
<path d="M2220 6658 c0 -7 9 -24 19 -37 l18 -24 7 27 c4 15 4 31 1 36 -9 14
-45 12 -45 -2z"/>
<path d="M2340 6626 c0 -8 5 -18 10 -21 6 -3 10 3 10 14 0 12 -4 21 -10 21 -5
0 -10 -6 -10 -14z"/>
<path d="M1247 6612 c-20 -22 -22 -48 -5 -58 14 -9 38 23 38 53 0 28 -11 29
-33 5z"/>
<path d="M2180 6601 c0 -17 5 -31 10 -31 6 0 10 11 10 24 0 14 -4 28 -10 31
-6 4 -10 -7 -10 -24z"/>
<path d="M1580 6601 c0 -18 34 -51 52 -51 15 0 8 37 -10 53 -25 23 -42 21 -42
-2z"/>
<path d="M2110 6595 c-13 -35 -13 -48 4 -71 15 -19 15 -19 36 2 17 16 19 25
11 45 -5 14 -16 31 -25 38 -13 11 -17 9 -26 -14z"/>
<path d="M960 6598 c0 -16 19 -38 33 -38 4 0 7 10 5 22 -3 25 -38 39 -38 16z"/>
<path d="M1895 6586 c-11 -6 -27 -15 -35 -21 -8 -5 -21 -10 -28 -11 -16 -3
-41 -34 -42 -51 0 -7 -4 -13 -8 -13 -4 0 -16 -20 -27 -45 -11 -29 -23 -44 -31
-41 -18 7 -30 -14 -14 -24 8 -5 15 -18 17 -29 1 -11 4 -24 4 -28 1 -4 -1 -16
-5 -25 -7 -16 -12 -15 -51 12 -30 21 -46 26 -51 19 -4 -7 2 -19 13 -28 35 -28
36 -50 2 -92 -17 -21 -36 -39 -43 -39 -15 0 -31 -110 -18 -119 5 -3 12 -13 15
-21 4 -12 6 -11 6 3 1 11 9 17 26 17 17 0 29 9 40 30 9 17 18 30 22 30 3 0 3
-3 0 -6 -7 -7 23 -64 34 -64 4 0 10 11 13 25 4 14 13 25 21 25 23 0 18 -18
-15 -60 -25 -31 -28 -40 -16 -49 8 -7 20 -32 27 -56 12 -39 17 -45 40 -45 15
0 32 -7 39 -15 7 -8 18 -15 24 -14 6 0 6 3 -2 6 -10 4 -9 8 4 18 13 9 18 28
19 76 0 35 6 74 14 87 7 13 10 30 7 38 -3 8 0 14 5 14 7 0 4 11 -6 26 -12 18
-14 29 -6 37 7 7 7 16 0 30 -6 10 -9 31 -7 46 4 24 1 26 -37 26 -22 0 -43 -4
-47 -10 -4 -5 -10 -1 -14 9 -5 14 4 29 39 61 41 38 47 48 49 86 0 24 2 49 2
55 1 6 19 33 40 61 21 28 38 55 38 59 -1 15 -37 21 -57 10z"/>
<path d="M2445 6580 c-8 -13 4 -32 16 -25 12 8 12 35 0 35 -6 0 -13 -4 -16
-10z"/>
<path d="M1130 6553 c0 -5 4 -15 10 -23 11 -18 25 -7 17 15 -6 15 -27 21 -27
8z"/>
<path d="M230 6526 c0 -7 7 -20 16 -27 14 -11 18 -10 30 6 21 28 17 35 -16 35
-19 0 -30 -5 -30 -14z"/>
<path d="M4096 6531 c-4 -7 -5 -15 -2 -18 9 -9 19 4 14 18 -4 11 -6 11 -12 0z"/>
<path d="M6026 6509 c-14 -17 -26 -38 -25 -47 1 -35 36 -117 50 -117 8 0 22
24 33 57 17 51 18 62 6 98 -16 48 -30 50 -64 9z"/>
<path d="M1970 6495 c0 -8 5 -15 10 -15 6 0 10 7 10 15 0 8 -4 15 -10 15 -5 0
-10 -7 -10 -15z"/>
<path d="M4873 6483 c-21 -4 -23 -10 -23 -63 0 -51 3 -60 26 -75 24 -16 27
-16 46 2 26 23 58 86 58 113 0 14 -7 20 -22 20 -13 0 -32 2 -43 4 -11 2 -30 2
-42 -1z"/>
<path d="M3751 6464 c-24 -9 -60 -31 -80 -49 -34 -33 -58 -37 -47 -9 9 24 -9
16 -34 -16 -14 -16 -32 -29 -40 -30 -19 0 -115 -88 -125 -115 -5 -13 -9 -16
-12 -7 -3 8 -13 -3 -25 -25 -11 -21 -30 -46 -41 -55 -33 -26 -16 -30 41 -9 29
11 56 20 60 21 4 2 18 7 32 12 103 39 200 49 370 36 72 -5 210 -51 250 -83 8
-6 38 -26 67 -43 146 -88 210 -234 198 -452 -2 -36 -4 -114 -5 -175 -1 -118
-25 -311 -39 -329 -5 -6 -10 -15 -11 -21 -11 -50 -45 -108 -67 -113 -10 -2
-45 -4 -78 -3 -67 1 -79 10 -134 106 -31 54 -116 143 -127 132 -3 -3 3 -18 15
-33 25 -32 26 -43 4 -59 -15 -11 -14 -14 5 -33 12 -12 24 -34 27 -49 3 -16 10
-42 15 -59 6 -17 10 -38 10 -47 0 -29 -53 -20 -111 18 -30 19 -61 35 -70 35
-9 0 -46 14 -80 32 -61 29 -63 31 -39 41 14 5 33 13 42 18 10 5 34 9 53 9 46
0 95 25 95 49 0 25 -33 45 -100 61 -118 28 -166 67 -154 124 3 17 10 35 15 41
5 5 9 17 9 26 0 9 13 42 30 74 43 83 56 131 40 150 -11 13 -11 16 0 13 8 -2
15 4 16 12 4 22 -106 113 -121 100 -8 -6 -41 -2 -98 12 -92 23 -88 23 -170
-18 -29 -14 -57 -19 -57 -9 0 12 55 105 62 105 4 0 8 9 8 20 0 10 9 24 20 30
11 6 17 16 14 25 -4 8 -10 12 -15 9 -5 -3 -9 0 -9 5 0 15 -53 14 -68 -1 -7 -7
-12 -8 -12 -2 0 5 -11 -7 -23 -26 -18 -29 -28 -35 -60 -36 -25 -1 -47 -9 -63
-25 l-26 -24 7 26 c7 27 6 27 -42 22 -65 -6 -73 -10 -72 -30 0 -11 3 -13 6 -5
7 18 20 15 26 -8 3 -13 -1 -21 -14 -25 -10 -4 -19 -10 -19 -15 0 -5 -9 -12
-20 -15 -26 -8 -26 -44 1 -53 20 -8 20 -10 5 -24 -9 -9 -16 -21 -16 -27 0 -6
-7 -11 -15 -11 -11 0 -14 -11 -11 -51 2 -33 -2 -56 -11 -65 -8 -7 -13 -19 -12
-26 1 -7 -3 -26 -9 -41 -7 -16 -12 -34 -12 -42 0 -7 -5 -15 -11 -17 -8 -3 -9
-20 -4 -56 6 -46 10 -52 30 -52 25 0 38 -21 29 -45 -4 -10 -2 -13 8 -10 10 4
14 -3 13 -27 0 -21 -5 -32 -12 -31 -9 2 -13 -10 -13 -37 0 -22 -4 -40 -8 -40
-5 0 -14 -12 -20 -26 -7 -14 -16 -23 -21 -19 -5 3 -12 1 -16 -5 -3 -6 -20 -17
-37 -26 -37 -19 -51 -6 -42 39 6 31 -15 38 -36 12 -7 -9 -21 -13 -31 -10 -10
4 -27 1 -37 -4 -17 -9 -20 -23 -21 -117 -1 -59 -5 -112 -8 -117 -3 -5 -12 2
-20 17 -7 14 -20 26 -28 26 -20 0 -19 -40 2 -69 14 -21 17 -22 28 -8 10 14 12
10 13 -23 1 -26 -3 -40 -11 -40 -6 -1 -19 -16 -28 -35 -13 -27 -13 -35 -3 -39
9 -3 15 7 20 29 10 56 26 41 20 -17 -3 -29 -5 -56 -6 -60 0 -5 -7 -8 -15 -8
-9 0 -15 -10 -15 -26 0 -14 4 -23 10 -19 6 3 10 2 10 -4 0 -5 -6 -12 -12 -14
-10 -4 -10 -6 -1 -6 6 -1 15 4 18 9 3 6 15 10 26 10 11 0 47 13 82 29 59 28
217 81 242 81 7 0 38 8 69 19 l57 19 30 -59 c16 -33 25 -59 19 -59 -5 0 -10 5
-10 10 0 6 -4 10 -10 10 -5 0 -10 -20 -10 -45 0 -24 -4 -66 -9 -92 -5 -26 -12
-64 -16 -84 -4 -28 -12 -40 -34 -49 -16 -6 -40 -10 -53 -8 -22 4 -22 5 7 18
l30 13 -25 7 c-21 7 -15 11 15 10 3 0 17 11 32 26 23 23 27 37 31 99 4 74 -7
100 -31 76 -6 -6 -20 -11 -32 -11 -11 0 -31 -6 -45 -13 -14 -7 -59 -24 -100
-37 -41 -14 -109 -41 -150 -61 -41 -20 -84 -39 -95 -43 -15 -4 -21 -16 -22
-42 l-2 -36 170 4 c184 3 222 -9 80 -27 -45 -6 -84 -12 -86 -13 -3 -1 -9 -2
-15 -2 -18 0 3 -31 26 -41 13 -5 23 -12 22 -16 -1 -5 5 -21 14 -38 8 -16 19
-44 22 -62 4 -18 16 -50 27 -72 10 -22 19 -47 19 -54 0 -8 11 -35 25 -58 14
-24 25 -54 25 -66 0 -21 60 -147 60 -128 1 15 49 -78 50 -94 0 -8 27 -70 60
-138 33 -67 60 -127 60 -132 0 -4 8 -19 19 -32 10 -13 53 -91 96 -174 42 -82
82 -154 87 -160 15 -15 17 -18 -139 294 -136 271 -230 487 -218 499 3 4 15 1
25 -6 11 -7 27 -12 35 -12 8 0 15 -6 15 -12 0 -9 3 -9 9 1 8 12 12 13 25 1 9
-7 20 -10 23 -6 4 4 13 -4 20 -16 7 -13 12 -16 11 -8 -3 19 19 60 32 60 6 0
10 -4 10 -10 0 -18 34 -50 53 -50 10 0 15 -4 12 -10 -3 -6 1 -7 9 -4 12 5 16
-1 16 -21 0 -14 4 -24 9 -20 5 3 13 -5 17 -17 8 -29 38 -58 59 -58 8 0 15 -4
15 -9 0 -16 55 -19 88 -5 19 7 36 23 39 34 3 11 11 20 19 20 8 0 11 6 7 15 -3
10 0 15 8 13 9 -2 15 8 17 27 2 16 9 33 15 37 8 5 6 8 -5 8 -10 0 -18 5 -18
10 0 6 6 10 13 10 17 0 38 36 31 54 -7 19 -29 26 -72 22 -18 -1 -35 1 -38 6
-3 4 7 8 23 9 15 1 35 2 43 3 8 2 27 3 43 4 22 2 27 7 27 26 0 30 16 42 35 26
8 -7 15 -7 19 -1 4 5 2 12 -4 16 -6 4 3 17 19 31 35 29 66 84 48 84 -7 0 -6 4
3 10 11 7 12 10 2 10 -15 0 -64 -25 -101 -52 -45 -34 -111 -16 -118 32 -2 15
3 23 17 27 11 3 20 11 20 17 0 17 53 54 85 60 15 3 44 -2 64 -10 l36 -15 -25
-14 c-14 -8 -20 -14 -15 -15 11 0 28 9 122 63 35 20 65 32 68 28 2 -5 0 -23
-5 -42 -6 -19 -10 -46 -10 -61 0 -16 -4 -28 -10 -28 -5 0 -10 -7 -10 -15 0 -8
-13 -29 -30 -48 -20 -23 -26 -37 -19 -44 16 -16 -95 -173 -122 -173 -6 0 -7
-5 -4 -10 4 -6 11 -8 16 -5 5 4 9 -3 9 -14 0 -12 -5 -21 -11 -21 -6 0 -8 -9
-4 -20 4 -11 2 -20 -4 -20 -6 0 -10 -6 -9 -12 2 -8 -5 -12 -17 -11 -11 1 -14
0 -8 -3 16 -7 3 -32 -47 -94 -62 -75 -69 -100 -29 -100 33 0 31 -21 -9 -103
-46 -94 -73 -183 -70 -227 l2 -30 66 6 c101 10 162 -28 185 -116 5 -19 25 -34
78 -59 63 -29 91 -54 222 -187 83 -85 155 -154 161 -154 5 0 15 5 22 12 9 9
12 7 12 -9 0 -13 10 -25 30 -33 25 -10 35 -9 67 7 46 24 64 50 44 63 -12 7
-12 14 -4 32 10 23 -7 73 -59 172 -9 16 -6 24 16 41 25 20 26 22 8 40 -10 11
-22 29 -26 40 -12 31 -15 165 -5 193 10 26 -4 82 -41 167 -10 22 -21 58 -25
80 -4 22 -9 53 -12 68 -4 23 -1 29 16 34 11 3 21 12 21 20 0 9 -6 12 -19 8
-23 -7 -36 29 -33 90 1 22 -6 77 -16 121 -10 45 -15 89 -12 99 7 20 -1 64 -30
165 -21 72 -21 190 -1 228 31 58 125 80 176 40 49 -38 58 -80 70 -303 3 -60
10 -137 16 -170 15 -92 48 -245 63 -295 8 -25 19 -70 25 -101 16 -78 31 -97
65 -81 18 8 24 16 19 28 -5 13 -2 15 14 10 10 -3 28 0 38 8 18 13 18 19 7 97
-23 162 -35 219 -47 219 -19 0 -33 69 -31 145 7 191 18 290 35 303 9 7 14 19
12 25 -13 44 -20 319 -8 345 28 61 152 89 209 47 49 -36 52 -56 45 -319 -6
-217 0 -360 19 -539 9 -76 23 -61 34 34 5 41 13 96 19 123 6 27 11 83 11 125
0 90 4 133 14 149 4 7 4 12 -1 12 -12 0 -8 52 7 79 8 16 11 48 8 97 -3 46 0
83 8 103 21 50 95 75 157 52 35 -14 81 -67 89 -103 5 -25 -2 -146 -15 -253 -2
-16 5 -21 31 -23 17 -2 32 -8 32 -14 0 -6 -11 -8 -25 -6 -14 3 -29 0 -34 -6
-11 -13 -22 -198 -13 -213 4 -6 22 -18 40 -27 18 -9 36 -24 39 -32 3 -7 13
-14 23 -14 9 0 36 -14 60 -31 65 -47 79 -38 119 77 58 164 128 212 213 147 27
-21 37 -38 41 -66 6 -41 -15 -143 -38 -194 -9 -17 -18 -46 -22 -64 -6 -29 -4
-32 13 -25 55 23 59 -1 6 -37 -43 -29 -98 -103 -127 -172 -97 -229 -123 -306
-126 -376 l-4 -74 40 -20 c22 -11 48 -31 59 -43 14 -18 26 -23 47 -18 15 3 45
-1 66 -8 33 -11 41 -11 63 5 14 9 36 21 50 24 24 7 24 7 9 -11 -9 -11 -20 -28
-24 -39 -7 -18 -9 -18 -12 -2 -6 23 -14 22 -39 -10 -16 -21 -25 -25 -35 -17
-8 6 -34 16 -59 23 -25 7 -59 19 -75 26 -17 7 -45 16 -62 19 -43 10 -43 7 -40
-249 l2 -210 23 -3 c13 -2 26 -10 28 -17 3 -8 42 -26 87 -41 107 -35 149 -57
190 -97 35 -36 137 -186 164 -242 15 -31 19 -33 52 -28 l36 6 -23 -19 -24 -20
18 -54 c9 -30 25 -65 34 -77 l17 -22 12 40 12 40 37 -30 c20 -16 52 -46 71
-66 32 -36 33 -39 16 -51 -10 -8 -25 -14 -32 -14 -7 0 -13 -5 -13 -10 0 -9 20
-8 72 7 33 8 313 -287 435 -459 20 -29 40 -55 43 -58 14 -11 108 -138 145
-195 21 -33 74 -110 117 -171 74 -106 89 -134 70 -134 -12 0 -32 -46 -32 -74
0 -30 119 -196 141 -196 5 0 9 76 9 170 l0 170 -25 -16 c-32 -21 -32 -4 0 26
l25 23 0 1243 0 1242 -47 19 c-26 10 -74 32 -107 48 -54 27 -61 34 -76 79 -16
50 -32 66 -45 47 -9 -16 -102 -14 -108 2 -4 9 -8 9 -15 -2 -7 -9 -12 -10 -16
-2 -8 12 -141 100 -165 109 -9 3 -44 26 -78 51 -34 25 -74 55 -88 65 -26 18
-27 22 -22 73 3 31 8 57 10 59 2 2 46 -21 98 -53 52 -31 164 -94 249 -141 85
-46 166 -92 180 -102 33 -23 206 -100 225 -100 7 0 6 236 -1 243 -4 3 -17 -1
-30 -10 -20 -13 -27 -13 -40 -2 -14 11 -18 10 -30 -6 -14 -18 -14 -18 -14 3 0
16 -10 27 -32 36 -89 38 -188 77 -233 92 -71 23 -280 128 -325 164 -21 16 -41
30 -45 30 -3 0 -26 14 -50 30 -24 17 -49 30 -55 30 -7 0 -114 57 -238 128
-125 70 -246 136 -269 146 -24 11 -43 23 -43 28 0 4 -7 8 -15 8 -26 0 -80 63
-110 128 -33 73 -58 80 -63 19 -3 -34 -6 -37 -25 -31 -25 7 -78 43 -89 58 -4
5 -2 18 3 27 10 20 12 70 3 94 -8 21 -45 35 -72 28 -19 -5 -27 -19 -41 -70 -6
-21 -8 -22 -32 -9 -46 24 -76 27 -83 10 -5 -13 -9 -14 -20 -4 -11 8 -20 9 -36
0 -29 -15 -21 -33 18 -41 18 -4 49 -18 70 -31 20 -14 71 -47 112 -74 41 -26
102 -68 135 -92 32 -24 74 -50 92 -57 36 -15 44 -35 14 -35 -11 0 -31 -14 -45
-31 -14 -17 -26 -24 -26 -17 0 8 -37 39 -82 69 -46 29 -110 75 -143 101 -33
27 -107 77 -165 112 -170 104 -190 117 -190 126 0 16 78 20 121 5 44 -16 61
-11 65 20 3 22 -84 75 -123 75 -17 0 -34 4 -37 8 -3 5 -8 62 -12 128 -4 65
-13 137 -21 159 -13 35 -22 80 -38 187 -3 16 2 33 10 42 21 20 19 48 -5 69
-11 9 -20 27 -20 39 0 14 -3 18 -8 11 -4 -6 -7 46 -8 116 0 122 -2 129 -32
186 -17 33 -33 68 -36 77 -3 10 -11 15 -20 12 -7 -3 -20 3 -27 13 -8 11 -21
22 -30 25 -16 6 -49 60 -49 80 0 4 -18 26 -40 48 -25 25 -37 45 -34 55 4 9 -2
25 -12 37 -21 23 -23 23 34 1 9 -3 2 8 -16 25 -37 35 -48 40 -116 48 -36 4
-57 13 -79 35 -16 16 -46 38 -66 48 -20 11 -49 31 -64 45 -15 14 -32 26 -36
26 -5 0 -14 7 -21 15 -7 8 -27 15 -46 15 -18 0 -36 5 -39 10 -11 17 -83 50
-110 50 -14 0 -25 4 -25 8 0 5 -17 14 -37 20 -155 47 -207 52 -282 26z m-232
-822 l36 -16 -30 -4 c-45 -6 -106 15 -98 34 6 17 33 13 92 -14z m-9 -47 c10
-12 9 -15 -8 -15 -11 0 -25 7 -32 15 -10 12 -9 15 8 15 11 0 25 -7 32 -15z
m24 -90 c6 -8 25 -16 41 -18 28 -3 30 -6 30 -50 1 -32 -3 -47 -12 -47 -7 0
-39 -26 -71 -58 -45 -46 -66 -60 -97 -65 -23 -4 -48 -16 -57 -28 -15 -17 -18
-18 -18 -5 0 9 -12 21 -27 28 -16 6 -48 19 -71 30 -33 14 -47 16 -57 8 -10 -9
-15 -4 -20 19 -3 17 -4 35 0 40 3 6 0 19 -6 29 -10 16 -8 27 12 63 20 36 29
43 49 41 14 -2 35 -13 47 -24 31 -29 114 -36 148 -14 17 11 34 15 48 10 20 -6
20 -5 8 10 -13 15 -12 18 7 23 12 3 22 9 22 14 0 14 11 11 24 -6z m46 -201 c0
-20 -29 -30 -43 -15 -9 10 -8 16 7 26 21 16 36 11 36 -11z m-270 -255 c0 -11
8 -33 19 -47 10 -15 21 -40 25 -55 4 -15 11 -25 16 -22 5 3 8 -3 8 -12 0 -10
2 -47 5 -82 7 -70 34 -107 87 -118 24 -4 29 -2 32 18 2 16 9 23 21 21 9 -2 17
2 17 8 0 19 41 10 48 -11 7 -19 9 -19 21 -5 8 9 27 16 44 16 35 0 29 10 -16
26 -21 7 -32 17 -32 30 0 16 6 18 40 16 22 -2 63 -10 90 -17 28 -7 52 -10 55
-6 3 3 22 7 43 8 33 3 100 26 147 52 8 4 17 17 18 27 6 33 52 59 52 29 0 -22
21 -18 27 5 7 28 15 25 36 -12 14 -23 21 -28 29 -20 7 7 20 12 29 12 10 0 26
11 37 25 29 37 55 24 46 -24 -4 -20 -11 -46 -15 -59 -6 -15 -5 -21 1 -17 16
10 12 -18 -6 -43 -9 -13 -13 -26 -10 -29 9 -9 -14 -44 -25 -38 -13 9 -39 -20
-39 -44 0 -13 -8 -23 -24 -27 -13 -3 -26 -15 -29 -26 -3 -11 -10 -17 -15 -14
-5 3 -23 -15 -41 -39 -17 -24 -44 -53 -60 -64 -29 -21 -80 -25 -93 -7 -4 6
-12 5 -22 -3 -19 -16 -153 -19 -191 -3 -17 6 -41 13 -55 15 -28 4 -48 11 -98
33 -18 8 -37 14 -43 14 -27 0 -131 87 -159 132 -38 61 -96 319 -79 350 5 10
14 16 19 13 5 -3 11 -1 15 5 11 17 25 11 25 -11z m-340 -14 c0 -8 -7 -15 -16
-15 -14 0 -14 3 -4 15 7 8 14 15 16 15 2 0 4 -7 4 -15z m227 -52 c-3 -10 -5
-4 -5 12 0 17 2 24 5 18 2 -7 2 -21 0 -30z m449 -7 c5 -12 11 -13 31 -3 22 10
28 8 43 -11 12 -14 24 -20 35 -16 11 5 18 0 22 -14 3 -13 10 -19 20 -15 27 10
43 -36 23 -67 -9 -14 -17 -13 -83 22 -10 5 -23 6 -28 2 -10 -6 -63 6 -116 27
-27 10 -30 44 -6 71 19 22 51 24 59 4z m-89 -31 c-7 -14 -15 -25 -19 -25 -12
0 -9 35 4 48 18 18 27 4 15 -23z m-350 -27 c-3 -8 -6 -5 -6 6 -1 11 2 17 5 13
3 -3 4 -12 1 -19z m-397 -48 c0 -12 -3 -12 -16 2 -9 9 -13 21 -9 28 9 14 25
-5 25 -30z m300 -106 c0 -8 -4 -12 -10 -9 -5 3 -10 10 -10 16 0 5 5 9 10 9 6
0 10 -7 10 -16z m2900 -590 c17 -9 37 -10 62 -5 28 7 40 5 49 -5 7 -8 8 -18 4
-22 -4 -4 -10 -1 -12 6 -8 21 -26 14 -76 -29 -37 -32 -48 -48 -47 -68 3 -43 1
-47 -15 -24 -8 12 -50 46 -92 76 -97 67 -110 88 -88 140 l16 38 87 -47 c48
-26 98 -53 112 -60z m175 -108 c35 -25 95 -61 134 -81 39 -19 71 -41 71 -48 0
-20 -44 -40 -69 -32 -15 4 -21 2 -21 -9 0 -28 -16 -25 -80 14 -35 22 -75 42
-89 45 -14 3 -37 15 -50 26 l-25 20 27 55 c15 30 29 54 32 54 4 0 35 -20 70
-44z m-2499 -91 c-4 -11 -36 -8 -50 6 -6 5 4 8 22 6 18 -1 30 -6 28 -12z m-32
-34 c3 -5 -8 -11 -24 -13 -30 -5 -41 6 -17 15 20 9 35 8 41 -2z m-77 -7 c-3
-3 -12 -4 -19 -1 -8 3 -5 6 6 6 11 1 17 -2 13 -5z m2563 -89 c-13 -14 -26 -22
-29 -19 -3 4 0 9 7 11 6 3 12 11 12 19 0 8 8 14 17 14 14 0 12 -4 -7 -25z
m-2843 9 c-3 -3 -12 -4 -19 -1 -8 3 -5 6 6 6 11 1 17 -2 13 -5z m2865 -74 c2
-22 0 -40 -4 -40 -8 0 -12 24 -9 44 1 4 -3 14 -9 20 -5 7 -7 16 -4 19 13 12
22 -3 26 -43z m-2812 25 c6 -8 10 -20 7 -27 -4 -8 -6 -7 -6 4 -1 11 -6 15 -16
12 -9 -4 -15 0 -15 10 0 20 14 21 30 1z m2790 -66 c0 -17 -4 -28 -10 -24 -5 3
-10 17 -10 31 0 13 5 24 10 24 6 0 10 -14 10 -31z m-1470 -115 c0 -54 -4 -83
-10 -79 -17 11 -11 165 6 165 2 0 4 -39 4 -86z m1690 67 c0 -6 -11 -22 -25
-37 -14 -15 -25 -30 -25 -35 0 -9 -39 -23 -47 -16 -6 7 76 97 88 97 5 0 9 -4
9 -9z m-188 -143 c-15 -15 -26 -4 -18 18 5 13 9 15 18 6 9 -9 9 -15 0 -24z
m454 -43 c9 -14 15 -28 12 -30 -7 -7 -58 34 -58 46 0 19 30 8 46 -16z m-1946
-42 c0 -7 -4 -13 -10 -13 -5 0 -10 12 -10 28 0 21 2 24 10 12 5 -8 10 -21 10
-27z m2015 27 c-3 -5 -12 -7 -20 -3 -21 7 -19 13 6 13 11 0 18 -4 14 -10z
m-737 -104 c87 -89 98 -126 16 -53 -92 80 -136 137 -106 137 4 0 44 -38 90
-84z m202 39 c0 -8 -4 -17 -10 -20 -6 -4 -10 5 -10 20 0 15 4 24 10 20 6 -3
10 -12 10 -20z m-383 -81 c-3 -3 -12 -4 -19 -1 -8 3 -5 6 6 6 11 1 17 -2 13
-5z m283 -64 c0 -5 -5 -10 -11 -10 -5 0 -7 5 -4 10 3 6 8 10 11 10 2 0 4 -4 4
-10z m150 -9 c0 -14 -78 -91 -82 -79 -2 5 12 27 32 49 35 38 50 47 50 30z
m130 -241 c30 -4 36 -10 38 -34 3 -22 0 -27 -12 -23 -8 3 -17 1 -19 -6 -3 -9
-9 -9 -26 1 -11 6 -28 12 -37 12 -12 0 -15 6 -10 23 3 12 6 28 6 35 0 8 5 10
12 6 7 -4 28 -10 48 -14z m-79 -133 c-1 -4 -1 -14 -1 -23 0 -11 -6 -14 -20 -9
-12 4 -27 1 -35 -5 -8 -7 -15 -9 -15 -4 0 12 52 55 63 51 4 -1 8 -6 8 -10z
m-263 -93 c46 -29 22 -43 -39 -23 -42 14 -53 24 -45 38 8 13 51 5 84 -15z m72
-34 c0 -5 -4 -10 -10 -10 -5 0 -10 5 -10 10 0 6 5 10 10 10 6 0 10 -4 10 -10z
m-1749 -37 c-5 -33 -31 -61 -31 -34 0 6 5 11 10 11 6 0 10 11 10 23 0 20 7 37
15 37 1 0 -1 -17 -4 -37z m2224 -11 c-8 -9 -25 20 -18 31 3 5 10 2 15 -7 6
-10 7 -20 3 -24z m-375 6 c0 -10 -9 -9 -35 2 -17 8 -16 8 8 7 15 -1 27 -5 27
-9z m260 2 c0 -5 -5 -10 -11 -10 -5 0 -7 5 -4 10 3 6 8 10 11 10 2 0 4 -4 4
-10z m-157 -19 c4 -1 7 -6 7 -12 0 -13 -79 -4 -94 11 -6 6 37 7 87 1z m61 -22
c-4 -8 0 -9 15 -4 17 5 21 2 21 -14 0 -24 -1 -25 -52 -9 -39 11 -39 12 -16 24
29 16 41 17 32 3z m97 -47 c-18 -6 -34 3 -37 21 -2 15 0 15 23 0 14 -10 21
-19 14 -21z m-2091 4 c0 -3 -4 -8 -10 -11 -5 -3 -10 -1 -10 4 0 6 5 11 10 11
6 0 10 -2 10 -4z m1968 -45 c-5 -15 -97 -81 -112 -81 -44 0 -13 65 38 79 41
12 78 13 74 2z m282 -187 c0 -18 -10 -17 -34 1 -21 16 -46 5 -46 -21 0 -7 -4
-15 -9 -18 -12 -8 -1 42 13 53 30 24 76 15 76 -15z m150 -214 c54 -28 55 -67
2 -50 -15 5 -39 11 -53 14 -27 6 -44 30 -33 47 9 15 42 10 84 -11z m445 -320
c3 -5 -1 -10 -9 -10 -9 0 -16 5 -16 10 0 6 4 10 9 10 6 0 13 -4 16 -10z"/>
<path d="M2125 6440 c-3 -5 -2 -10 4 -10 5 0 13 5 16 10 3 6 2 10 -4 10 -5 0
-13 -4 -16 -10z"/>
<path d="M1377 6396 c-3 -8 -3 -16 0 -19 9 -10 33 5 33 19 0 18 -26 18 -33 0z"/>
<path d="M2427 6394 c-10 -11 -8 -57 3 -74 9 -13 12 -12 26 5 18 25 15 69 -6
73 -9 1 -19 0 -23 -4z"/>
<path d="M2140 6375 c0 -8 5 -15 10 -15 6 0 10 7 10 15 0 8 -4 15 -10 15 -5 0
-10 -7 -10 -15z"/>
<path d="M2081 6346 c-13 -16 -2 -29 16 -18 7 4 8 13 4 20 -6 10 -10 10 -20
-2z"/>
<path d="M1070 6308 c0 -24 16 -48 33 -48 4 0 7 15 5 32 -4 40 -38 54 -38 16z"/>
<path d="M175 6310 c3 -5 8 -10 11 -10 2 0 4 5 4 10 0 6 -5 10 -11 10 -5 0 -7
-4 -4 -10z"/>
<path d="M4720 6307 c0 -9 -6 -20 -13 -24 -22 -13 -40 -75 -25 -85 38 -24 61
5 53 68 -5 47 -15 73 -15 41z"/>
<path d="M864 6284 c3 -9 6 -18 6 -20 0 -3 5 -2 10 1 16 10 12 35 -6 35 -11 0
-14 -5 -10 -16z"/>
<path d="M1037 6260 c3 -11 9 -20 13 -20 4 0 10 9 13 20 4 15 0 20 -13 20 -13
0 -17 -5 -13 -20z"/>
<path d="M5860 6235 c0 -22 4 -34 10 -30 6 3 10 17 10 30 0 13 -4 27 -10 30
-6 4 -10 -8 -10 -30z"/>
<path d="M4917 6239 c-8 -11 -13 -28 -10 -38 2 -9 -3 -23 -11 -30 -21 -17 -21
-77 -1 -85 9 -3 15 -18 15 -35 0 -34 23 -47 45 -24 29 28 66 114 72 164 5 45
4 49 -15 49 -11 0 -24 -4 -27 -10 -10 -16 -22 -12 -28 10 -7 26 -22 25 -40 -1z"/>
<path d="M88 6203 c7 -3 16 -2 19 1 4 3 -2 6 -13 5 -11 0 -14 -3 -6 -6z"/>
<path d="M1206 6184 c-4 -10 4 -35 18 -59 14 -23 22 -46 18 -50 -4 -5 1 -5 11
-2 10 4 25 7 34 7 17 0 14 34 -5 36 -6 1 -17 2 -23 3 -6 0 -10 11 -9 24 4 45
0 57 -19 57 -10 0 -22 -7 -25 -16z"/>
<path d="M2215 6190 c-3 -5 -1 -10 4 -10 6 0 11 5 11 10 0 6 -2 10 -4 10 -3 0
-8 -4 -11 -10z"/>
<path d="M3300 6196 c0 -2 9 -6 20 -9 11 -3 18 -1 14 4 -5 9 -34 13 -34 5z"/>
<path d="M5998 6158 c-7 -20 2 -46 20 -53 19 -7 33 12 30 40 -3 23 -44 33 -50
13z"/>
<path d="M1937 6143 c-3 -5 -4 -23 -3 -42 2 -65 66 -65 66 0 0 22 -6 32 -26
39 -30 12 -32 12 -37 3z"/>
<path d="M4782 6138 c-16 -16 -15 -37 2 -44 8 -3 12 -13 8 -26 -8 -32 20 -17
31 16 8 23 6 32 -10 47 -15 15 -21 17 -31 7z"/>
<path d="M5740 6127 c-24 -18 -50 -60 -50 -79 0 -20 26 -48 45 -48 22 0 47 57
43 97 -3 40 -15 49 -38 30z"/>
<path d="M1340 6120 c-13 -8 -12 -10 3 -10 9 0 17 5 17 10 0 12 -1 12 -20 0z"/>
<path d="M627 6114 c-10 -11 -9 -54 2 -54 6 0 12 4 15 9 8 12 -8 54 -17 45z"/>
<path d="M2355 6087 c-8 -29 11 -70 28 -64 7 2 12 21 12 43 0 47 -30 62 -40
21z"/>
<path d="M2430 6095 c-13 -16 -10 -47 6 -52 14 -5 47 44 39 57 -9 15 -31 12
-45 -5z"/>
<path d="M5141 6091 c-11 -20 -5 -51 9 -51 14 0 32 29 28 46 -5 25 -25 28 -37
5z"/>
<path d="M972 6080 c-19 -10 -40 -27 -48 -37 -12 -16 -15 -16 -26 -3 -7 8 -23
16 -36 18 -29 4 -47 -39 -33 -79 5 -15 7 -36 5 -46 -2 -10 2 -74 10 -143 27
-218 30 -229 67 -209 12 6 20 5 26 -3 11 -19 23 73 11 95 -5 9 -15 17 -23 17
-21 0 -19 14 9 47 13 15 25 37 27 48 6 31 37 31 49 -1 13 -32 55 -74 75 -74
25 0 25 -18 0 -24 -26 -7 -31 -25 -15 -55 6 -13 3 -28 -11 -56 -14 -25 -18
-46 -14 -66 6 -27 0 -34 -27 -30 -5 0 -8 -8 -8 -18 0 -11 -4 -22 -9 -25 -4 -3
-11 -34 -13 -68 -3 -35 -14 -79 -23 -100 -21 -42 -14 -78 10 -58 9 7 19 9 23
5 4 -4 1 -10 -5 -12 -16 -6 -17 -35 -1 -51 9 -9 9 -12 1 -12 -7 0 -15 -9 -18
-20 -3 -11 -12 -20 -19 -20 -6 0 -24 -6 -39 -12 -31 -15 -33 -31 -17 -168 5
-47 12 -119 14 -160 22 -307 28 -365 43 -393 12 -24 13 -37 4 -67 -15 -49 -15
-47 15 -75 15 -14 27 -35 28 -47 2 -32 26 -35 26 -3 0 15 4 24 10 20 12 -7 14
-45 2 -45 -4 0 -8 -19 -7 -41 1 -41 2 -42 40 -46 22 -2 42 -6 44 -9 9 -9 -23
-24 -52 -24 -21 0 -31 7 -40 28 -18 40 -47 39 -47 -3 0 -32 2 -34 68 -54 57
-17 257 -61 278 -61 3 0 1 6 -5 14 -15 18 -3 82 13 66 6 -6 16 -25 22 -43 6
-18 16 -32 23 -32 6 0 15 -5 19 -11 4 -6 16 -16 28 -22 28 -15 70 -128 88
-237 20 -121 23 -287 7 -355 -16 -68 -14 -198 4 -225 26 -39 195 -205 209
-205 8 0 28 11 44 25 17 14 38 25 48 25 33 0 92 33 103 57 9 20 8 30 -7 51
-11 15 -17 32 -15 39 2 6 -5 17 -16 23 -12 6 -21 19 -21 29 0 10 -10 29 -22
43 -43 48 -72 87 -74 100 -7 36 -56 152 -74 175 -11 14 -20 34 -20 45 0 11
-11 43 -25 72 -14 29 -25 64 -24 77 0 33 -15 96 -35 143 -12 29 -13 41 -5 47
8 5 7 9 -3 15 -8 5 -28 32 -44 59 -15 28 -44 67 -64 88 -19 21 -39 45 -43 53
-4 8 -15 14 -22 14 -10 0 -15 10 -15 28 0 36 50 90 90 98 23 5 30 12 30 30 0
17 -6 24 -20 24 -17 0 -19 5 -13 33 3 17 11 35 17 40 8 5 7 9 -1 15 -10 6 -10
17 -3 42 12 43 13 40 -6 40 -11 0 -14 5 -9 18 14 35 17 80 6 86 -16 10 -14 26
4 26 16 0 32 47 20 58 -4 4 -10 1 -12 -5 -7 -20 -31 -15 -43 7 -6 11 -20 20
-30 20 -11 0 -20 7 -20 15 0 8 6 15 13 15 8 0 24 11 37 25 13 14 29 25 35 25
8 0 13 22 14 62 1 33 4 64 6 68 7 11 9 259 3 265 -9 9 -78 -110 -78 -133 0
-12 -13 -30 -30 -42 -32 -23 -40 -50 -14 -50 15 0 15 -2 0 -25 -9 -13 -16 -31
-16 -39 0 -27 -21 -28 -41 -2 -42 53 -65 18 -33 -50 17 -35 16 -40 -15 -89
-13 -20 -20 -49 -20 -88 -1 -38 -5 -56 -11 -52 -6 4 -17 1 -25 -5 -19 -15 -46
-5 -39 14 3 8 1 17 -4 20 -6 3 -12 -1 -16 -9 -3 -8 -13 -15 -21 -15 -9 0 -13
-5 -10 -10 4 -6 11 -8 16 -5 14 9 11 -8 -5 -31 -11 -15 -23 -20 -45 -16 -18 2
-31 0 -31 -7 0 -6 -7 -8 -15 -5 -27 11 -16 24 20 24 33 0 35 2 35 35 0 19 -1
37 -2 40 -2 2 6 11 17 19 20 15 20 15 -7 41 -16 14 -28 30 -28 36 0 5 -12 21
-26 34 -29 27 -25 45 13 45 13 0 36 9 50 20 14 11 29 17 33 15 13 -8 22 13 15
35 -7 22 -44 27 -62 9 -19 -19 -25 7 -12 51 15 49 4 64 -23 31 -16 -21 -21
-22 -29 -10 -5 7 -9 17 -9 21 0 4 -10 13 -22 19 -18 10 -24 8 -35 -7 -11 -15
-13 -16 -13 -2 0 9 -9 20 -20 23 -24 8 -33 40 -22 80 7 24 14 30 37 30 17 0
32 7 39 20 6 10 17 25 24 33 7 8 10 23 7 33 -5 14 3 28 24 48 17 16 31 35 31
43 0 8 18 40 40 71 22 30 40 60 40 66 0 11 61 3 70 -9 3 -4 15 -10 26 -14 20
-6 22 -2 26 36 4 35 1 46 -16 60 -12 10 -16 18 -10 18 19 0 24 43 11 95 -10
42 -16 50 -47 60 -19 7 -36 19 -38 28 -4 18 23 24 33 7 11 -17 45 -11 45 8 0
10 5 23 10 28 16 16 18 156 3 161 -10 4 -9 8 2 20 20 19 9 36 -17 27 -13 -4
-19 -2 -16 6 2 6 7 11 12 10 16 -4 65 53 64 74 -2 34 -28 57 -63 54 -17 -1
-35 1 -41 5 -7 4 -10 -9 -9 -37 2 -45 -16 -83 -34 -71 -23 14 -33 -49 -26
-160 8 -124 -3 -136 -16 -18 -13 114 -16 133 -22 139 -3 3 -18 -12 -34 -35
-15 -22 -31 -40 -35 -41 -3 0 -12 13 -19 29 -7 16 -17 27 -21 25 -5 -3 -6 -10
-3 -15 10 -14 -3 -11 -25 8 -25 22 -25 39 0 55 15 10 20 24 20 60 0 36 4 48
15 48 8 0 15 7 15 16 0 11 -5 14 -16 10 -13 -5 -15 -1 -12 19 6 29 4 30 -40 5z
m161 -504 c-3 -28 -9 -43 -13 -35 -6 13 -7 47 -1 114 l3 30 9 -30 c5 -16 6
-52 2 -79z m0 -92 c-4 -10 -9 -12 -15 -6 -12 12 -1 35 12 27 5 -3 6 -13 3 -21z
m57 -44 c0 -16 -7 -20 -30 -20 -20 0 -30 -5 -30 -15 0 -21 -36 -19 -45 2 -3
10 -3 19 2 20 4 2 19 10 33 17 39 22 70 20 70 -4z m-142 -211 c-17 -11 -38
-11 -38 -1 0 5 10 19 23 32 l22 25 3 -24 c2 -13 -2 -28 -10 -32z m-20 -377 c2
-7 -3 -12 -12 -12 -9 0 -16 7 -16 16 0 17 22 14 28 -4z m62 -34 c0 -5 -11 -8
-25 -8 -29 0 -33 15 -8 29 17 9 32 -1 33 -21z m310 -234 c19 -19 -2 -43 -23
-26 -7 6 -22 9 -34 6 -26 -7 -39 12 -23 31 14 17 56 11 80 -11z m-123 -156
c-3 -7 -5 -2 -5 12 0 14 2 19 5 13 2 -7 2 -19 0 -25z m-217 2 c0 -5 -4 -10
-10 -10 -5 0 -10 5 -10 10 0 6 5 10 10 10 6 0 10 -4 10 -10z m380 -41 c0 -5
-7 -9 -15 -9 -15 0 -20 12 -9 23 8 8 24 -1 24 -14z m-318 -30 c6 -4 -6 -27
-26 -53 -20 -26 -36 -54 -36 -62 0 -8 -4 -14 -10 -14 -5 0 -10 11 -10 25 0 16
-11 35 -27 49 -19 17 -24 28 -19 42 7 18 9 17 31 -8 30 -35 34 -35 46 2 6 17
15 30 20 30 5 0 10 8 10 18 1 14 2 13 6 -3 3 -11 10 -23 15 -26z m169 -22
c-13 -13 -26 -3 -16 12 3 6 11 8 17 5 6 -4 6 -10 -1 -17z m36 -203 c-3 -3 -12
-4 -19 -1 -8 3 -5 6 6 6 11 1 17 -2 13 -5z m-102 -49 c-41 -33 -58 -33 -43 0
8 19 19 25 42 25 l31 0 -30 -25z m-40 -75 c0 -19 -32 -25 -50 -10 -24 20 -17
31 18 28 20 -2 32 -8 32 -18z"/>
<path d="M1320 6096 c0 -2 7 -6 15 -10 8 -3 15 -1 15 4 0 6 -7 10 -15 10 -8 0
-15 -2 -15 -4z"/>
<path d="M5880 6079 c0 -11 5 -17 10 -14 6 3 10 13 10 21 0 8 -4 14 -10 14 -5
0 -10 -9 -10 -21z"/>
<path d="M3145 6053 c-45 -30 -53 -40 -77 -103 -21 -54 -21 -50 -4 -50 8 0 17
7 20 16 3 8 11 12 17 8 7 -4 9 -3 6 3 -7 10 21 42 30 35 3 -2 7 -1 11 2 3 3 0
6 -7 6 -7 0 -9 5 -6 10 4 6 14 9 23 8 11 -2 17 4 18 17 0 11 4 28 8 37 15 34
0 38 -39 11z"/>
<path d="M759 6047 c-2 -30 -3 -35 -13 -58 -4 -8 -2 -28 4 -43 14 -38 13 -69
-5 -102 -14 -27 -14 -29 6 -32 20 -4 21 -8 16 -70 -4 -51 -2 -71 10 -84 13
-15 11 -17 -17 -23 -26 -6 -35 -3 -46 14 -20 28 -42 27 -46 -1 -2 -17 -11 -24
-30 -26 -27 -3 -28 -5 -28 -70 0 -37 3 -77 6 -90 l7 -23 19 21 c24 25 44 26
51 0 6 -24 45 -27 53 -5 4 8 14 15 23 15 13 0 13 2 2 9 -8 5 -11 16 -8 26 4 9
12 13 17 10 6 -4 17 -2 24 5 16 13 12 188 -6 280 -6 30 -12 99 -12 152 -1 63
-5 101 -13 110 -10 9 -13 7 -14 -15z m-48 -479 c22 -24 21 -21 13 -42 -9 -22
-30 -20 -48 6 -11 15 -12 26 -5 40 12 23 18 23 40 -4z"/>
<path d="M5512 6023 c2 -20 9 -28 23 -28 14 0 21 8 23 28 3 23 0 27 -23 27
-23 0 -26 -4 -23 -27z"/>
<path d="M5870 6035 c0 -9 6 -12 15 -9 8 4 15 10 15 15 0 5 -7 9 -15 9 -8 0
-15 -7 -15 -15z"/>
<path d="M230 6025 c-19 -23 -4 -60 34 -80 20 -11 37 -17 40 -15 2 3 7 22 11
42 6 34 5 38 -24 52 -37 20 -45 20 -61 1z"/>
<path d="M1462 6028 c6 -18 28 -21 28 -4 0 9 -7 16 -16 16 -9 0 -14 -5 -12
-12z"/>
<path d="M5318 5966 c-10 -7 -18 -25 -18 -40 0 -21 5 -26 24 -26 25 0 56 36
56 65 0 19 -38 20 -62 1z"/>
<path d="M2431 5939 c-15 -14 -20 -27 -15 -42 10 -35 34 -68 44 -62 12 7 13
125 2 125 -5 0 -18 -9 -31 -21z"/>
<path d="M3430 5945 c0 -8 2 -15 4 -15 2 0 6 7 10 15 3 8 1 15 -4 15 -6 0 -10
-7 -10 -15z"/>
<path d="M3125 5930 c3 -5 8 -10 11 -10 2 0 4 5 4 10 0 6 -5 10 -11 10 -5 0
-7 -4 -4 -10z"/>
<path d="M486 5921 c-4 -5 -4 -16 0 -24 3 -9 -3 -16 -15 -20 -33 -8 -24 -24
17 -32 20 -4 43 -11 50 -17 9 -8 12 -5 12 11 0 11 -6 21 -14 21 -18 0 -26 22
-19 49 4 15 1 21 -10 21 -9 0 -18 -4 -21 -9z"/>
<path d="M2138 5883 c-9 -39 13 -72 25 -39 7 17 -2 56 -13 56 -4 0 -10 -8 -12
-17z"/>
<path d="M2506 5885 c-18 -18 -19 -25 -10 -49 9 -24 29 -19 43 11 10 21 9 29
-2 40 -12 12 -16 12 -31 -2z"/>
<path d="M5953 5852 c-63 -68 -63 -69 -49 -81 10 -9 16 -8 26 4 7 8 16 12 21
9 14 -8 10 -34 -5 -34 -24 0 -90 -34 -117 -60 -15 -14 -44 -37 -66 -51 -31
-21 -43 -37 -53 -73 -12 -45 -12 -50 16 -107 15 -33 34 -65 41 -71 22 -18 58
26 78 95 10 34 20 63 21 65 1 2 15 -3 30 -11 24 -13 31 -12 64 5 20 11 40 29
45 41 6 12 24 31 40 42 46 31 44 73 -8 164 -23 41 -47 76 -54 78 -6 2 -20 -5
-30 -15z"/>
<path d="M622 5834 c-19 -13 -22 -21 -16 -43 4 -14 8 -41 8 -60 2 -81 42 -16
49 78 2 40 -10 47 -41 25z"/>
<path d="M4981 5811 c-8 -5 -11 -16 -8 -25 5 -14 11 -15 27 -6 11 6 20 17 20
25 0 17 -18 19 -39 6z"/>
<path d="M5534 5798 c-56 -28 -70 -52 -47 -83 22 -29 59 -48 82 -40 26 8 51
59 51 104 0 36 -3 41 -22 40 -13 0 -41 -9 -64 -21z"/>
<path d="M1882 5743 c2 -10 12 -18 23 -18 11 0 21 8 23 18 3 13 -3 17 -23 17
-20 0 -26 -4 -23 -17z"/>
<path d="M4992 5741 c4 -13 18 -16 19 -4 0 4 -5 9 -11 12 -7 2 -11 -2 -8 -8z"/>
<path d="M0 5686 c0 -62 10 -70 64 -55 32 9 56 33 56 57 0 11 -82 52 -104 52
-13 0 -16 -11 -16 -54z"/>
<path d="M985 5730 c3 -5 8 -10 11 -10 2 0 4 5 4 10 0 6 -5 10 -11 10 -5 0 -7
-4 -4 -10z"/>
<path d="M1015 5709 c-9 -28 1 -36 14 -10 7 12 7 22 2 26 -5 3 -13 -4 -16 -16z"/>
<path d="M1428 5686 c-23 -53 20 -78 46 -27 11 21 12 31 3 40 -18 18 -37 13
-49 -13z"/>
<path d="M6436 5681 c-16 -18 -16 -21 -1 -50 8 -17 22 -31 30 -31 18 0 29 41
21 75 -8 30 -27 32 -50 6z"/>
<path d="M3884 5665 c-24 -19 -26 -27 -22 -66 6 -51 54 -158 75 -166 8 -3 12
-12 9 -20 -7 -17 109 -74 146 -72 22 1 22 2 -3 11 -14 6 -31 19 -38 29 -9 16
-8 19 9 19 11 0 20 -4 20 -9 0 -12 63 -21 74 -11 4 5 22 0 40 -11 17 -10 34
-19 39 -19 16 0 5 39 -23 82 -31 47 -59 66 -70 49 -9 -16 -86 14 -82 33 2 10
-11 19 -38 27 -22 7 -40 15 -40 18 0 17 52 34 113 37 39 2 71 5 73 7 14 13
-70 67 -105 67 -16 0 -33 5 -36 10 -12 20 -111 9 -141 -15z"/>
<path d="M2252 5659 c2 -7 10 -15 17 -17 8 -3 12 1 9 9 -2 7 -10 15 -17 17 -8
3 -12 -1 -9 -9z"/>
<path d="M320 5646 c0 -9 5 -16 10 -16 6 0 10 4 10 9 0 6 -4 13 -10 16 -5 3
-10 -1 -10 -9z"/>
<path d="M5360 5629 c-13 -6 -39 -21 -57 -35 -18 -14 -49 -32 -68 -40 -40 -16
-38 -34 3 -34 16 0 32 -8 39 -18 15 -25 71 -17 97 12 32 36 48 84 36 106 -12
22 -15 23 -50 9z"/>
<path d="M4190 5592 c0 -13 59 -66 66 -60 7 7 -14 50 -30 60 -15 10 -36 10
-36 0z"/>
<path d="M1592 5573 c5 -25 28 -28 28 -4 0 12 -6 21 -16 21 -9 0 -14 -7 -12
-17z"/>
<path d="M1772 5558 c-28 -46 -112 -217 -112 -227 0 -15 31 -21 52 -10 36 19
66 51 72 75 4 13 11 24 16 24 6 0 10 6 10 14 0 8 5 18 10 21 6 4 9 1 8 -6 -2
-6 2 -13 9 -16 7 -3 9 3 6 16 -3 12 0 28 7 35 19 24 -3 54 -36 48 -25 -4 -26
-3 -19 27 9 40 2 39 -23 -1z"/>
<path d="M866 5541 c-3 -5 1 -28 9 -51 11 -32 12 -46 4 -56 -23 -28 12 -144
42 -144 26 0 25 40 -1 47 -11 3 -20 11 -20 18 0 6 9 20 20 30 11 10 20 28 20
41 0 13 5 26 10 29 13 8 13 62 0 70 -6 4 -17 2 -25 -5 -10 -9 -15 -7 -20 9 -6
21 -29 28 -39 12z"/>
<path d="M2344 5506 c-8 -22 3 -33 18 -18 9 9 9 15 0 24 -9 9 -13 7 -18 -6z"/>
<path d="M1440 5488 c0 -30 15 -46 23 -24 3 8 -1 22 -8 33 -13 17 -14 16 -15
-9z"/>
<path d="M5120 5495 c-12 -15 -12 -21 1 -43 8 -15 21 -27 29 -27 22 0 24 38 3
64 -18 21 -20 22 -33 6z"/>
<path d="M4230 5462 c0 -14 39 -46 47 -38 4 4 2 15 -3 24 -12 19 -44 29 -44
14z"/>
<path d="M1645 5440 c-8 -13 4 -32 16 -25 12 8 12 35 0 35 -6 0 -13 -4 -16
-10z"/>
<path d="M2440 5430 c-24 -24 -24 -29 -4 -58 21 -31 33 -28 50 14 25 60 -3 87
-46 44z"/>
<path d="M6018 5426 c-23 -17 -23 -62 -1 -70 22 -9 45 21 41 53 -4 29 -17 35
-40 17z"/>
<path d="M5451 5390 c-24 -47 -26 -66 -8 -77 6 -4 12 -19 12 -33 0 -20 8 -28
42 -39 46 -16 68 -7 83 34 10 28 3 41 -35 64 -22 13 -37 31 -43 52 -11 46 -26
46 -51 -1z"/>
<path d="M200 5391 c0 -5 5 -13 10 -16 6 -3 10 -2 10 4 0 5 -4 13 -10 16 -5 3
-10 2 -10 -4z"/>
<path d="M395 5388 c-2 -7 -5 -24 -7 -38 -3 -23 -7 -25 -55 -25 -41 1 -57 6
-73 23 -17 17 -25 20 -40 12 -32 -17 -33 -29 -3 -42 15 -7 31 -17 34 -21 4 -5
9 -5 13 1 9 15 72 -10 109 -45 17 -16 43 -37 57 -46 23 -16 25 -16 47 5 13 12
23 30 23 40 0 11 7 18 19 18 10 0 24 7 31 15 10 12 7 15 -17 20 -49 11 -53 14
-53 38 0 35 -75 75 -85 45z"/>
<path d="M1833 5364 c-18 -18 -33 -41 -33 -51 1 -25 26 -56 49 -60 17 -2 21 5
26 45 3 26 9 59 11 75 7 36 -12 33 -53 -9z"/>
<path d="M0 5362 c0 -22 22 -44 42 -41 7 1 21 -1 31 -6 18 -8 107 14 107 27 0
4 -15 9 -32 12 -75 12 -94 16 -120 22 -23 5 -28 3 -28 -14z"/>
<path d="M763 5329 c-32 -28 -77 -64 -101 -81 l-43 -29 7 66 c6 62 6 67 -12
63 -16 -3 -19 -11 -17 -48 2 -25 4 -85 6 -135 3 -49 9 -127 16 -173 8 -59 8
-89 1 -103 -12 -22 -6 -39 14 -39 18 0 43 -30 51 -62 6 -21 14 -28 46 -33 24
-4 39 -12 39 -21 0 -25 38 -15 52 14 7 15 22 28 34 30 18 3 21 11 22 70 l2 67
-31 -38 c-53 -65 -70 -39 -19 31 17 23 25 42 19 42 -7 0 -8 15 -4 44 7 46 0
53 -33 32 -23 -14 -27 5 -5 22 38 30 45 67 38 205 -4 70 -11 127 -16 127 -4 0
-34 -23 -66 -51z m31 -339 c5 -5 7 -12 5 -15 -8 -7 -79 17 -79 28 0 11 60 1
74 -13z"/>
<path d="M1970 5334 c0 -27 20 -54 40 -54 31 0 26 44 -5 58 -33 15 -35 15 -35
-4z"/>
<path d="M1362 5318 c-7 -7 -12 -16 -12 -20 0 -12 28 -10 36 3 10 17 -10 31
-24 17z"/>
<path d="M1244 5309 c-7 -12 -5 -15 23 -23 18 -6 22 -4 17 8 -7 19 -32 28 -40
15z"/>
<path d="M1716 5285 c-35 -17 -55 -21 -71 -15 -28 11 -36 5 -73 -55 l-31 -50
3 -193 c2 -106 6 -195 9 -199 12 -11 20 5 19 36 0 16 8 46 18 67 14 26 17 41
9 50 -14 18 5 27 41 19 24 -5 33 -1 52 21 63 75 118 117 135 103 7 -6 10 -15
7 -20 -3 -5 2 -9 11 -9 9 0 14 4 10 9 -3 5 5 11 17 13 12 2 28 13 34 25 6 13
14 20 17 16 4 -3 7 -1 7 5 0 7 -10 12 -22 12 -22 0 -22 1 6 25 16 14 44 29 63
34 37 11 88 57 72 67 -5 3 -22 -6 -38 -19 -17 -14 -49 -27 -74 -31 -54 -8 -87
-30 -71 -46 12 -12 7 -57 -6 -65 -14 -8 -40 6 -40 22 0 29 -96 -16 -110 -52
-13 -33 -75 -50 -107 -29 -17 11 -23 23 -22 47 1 18 1 37 -1 42 -10 41 33 79
56 49 21 -26 41 -15 62 36 13 31 30 53 43 59 13 4 23 17 24 29 1 12 1 22 1 22
-1 0 -23 -11 -50 -25z"/>
<path d="M2180 5300 c0 -5 5 -10 10 -10 6 0 10 5 10 10 0 6 -4 10 -10 10 -5 0
-10 -4 -10 -10z"/>
<path d="M2277 5282 c-10 -10 -17 -24 -17 -30 0 -16 -33 -15 -48 0 -9 9 -12 5
-12 -19 0 -22 7 -37 22 -47 31 -22 39 -20 32 8 -3 13 -1 27 4 30 14 8 35 -21
28 -39 -4 -12 -2 -13 13 -3 29 18 42 72 24 97 -17 26 -25 26 -46 3z"/>
<path d="M1482 5279 c2 -6 8 -10 13 -10 5 0 11 4 13 10 2 6 -4 11 -13 11 -9 0
-15 -5 -13 -11z"/>
<path d="M6204 5263 c-8 -31 5 -57 32 -62 10 -2 23 -9 27 -17 14 -24 37 -15
54 20 15 32 15 37 -1 60 -14 22 -24 26 -61 26 -40 0 -45 -3 -51 -27z"/>
<path d="M1230 5235 c-13 -16 -12 -57 11 -232 7 -57 17 -103 21 -103 11 0 10
108 -1 114 -10 6 -8 109 4 171 5 31 3 44 -8 53 -11 10 -17 9 -27 -3z"/>
<path d="M6922 5243 c-23 -5 -52 -49 -52 -80 0 -28 71 -93 101 -93 29 0 49 17
49 41 0 9 7 22 15 29 20 16 20 70 0 70 -8 0 -29 9 -47 20 -18 11 -35 19 -38
19 -3 -1 -15 -4 -28 -6z"/>
<path d="M530 5216 c0 -2 7 -9 15 -16 12 -10 15 -10 15 4 0 9 -7 16 -15 16 -8
0 -15 -2 -15 -4z"/>
<path d="M6073 5172 c-15 -9 -3 -114 14 -119 18 -6 45 53 41 90 -3 33 -29 46
-55 29z"/>
<path d="M366 5146 c7 -19 38 -22 32 -3 -3 6 -12 13 -21 15 -12 2 -15 -1 -11
-12z"/>
<path d="M1110 5145 c-9 -11 -9 -21 1 -44 l13 -29 13 25 c9 18 10 30 3 44 -13
23 -14 23 -30 4z"/>
<path d="M2428 5136 c-36 -27 -15 -116 28 -116 8 0 14 -5 14 -11 0 -28 18 6
30 57 13 53 12 57 -5 70 -23 17 -45 17 -67 0z"/>
<path d="M5980 5125 c-7 -14 -10 -28 -7 -31 9 -9 37 15 37 32 0 24 -17 24 -30
-1z"/>
<path d="M2565 5111 c3 -12 3 -21 -2 -20 -4 1 -17 1 -28 0 -18 -2 -17 -4 5
-13 25 -11 25 -11 3 -15 -19 -4 -23 -11 -23 -37 0 -55 54 -77 64 -27 9 45 0
125 -13 129 -9 3 -11 -2 -6 -17z"/>
<path d="M5530 5110 c-30 -30 -25 -49 25 -97 63 -60 85 -55 85 18 0 22 -10 39
-37 64 -44 41 -47 41 -73 15z"/>
<path d="M1062 5106 c1 -10 8 -17 13 -17 15 1 12 24 -3 29 -9 3 -13 -2 -10
-12z"/>
<path d="M2292 5107 c-7 -8 -23 -18 -36 -21 -26 -6 -37 -50 -26 -97 6 -24 6
-24 23 8 9 18 17 39 17 48 0 8 4 15 10 15 12 0 32 38 28 52 -2 6 -9 4 -16 -5z"/>
<path d="M180 5082 c0 -13 49 -60 70 -67 48 -15 34 22 -20 53 -42 24 -50 26
-50 14z"/>
<path d="M5073 5083 c-7 -2 -13 -8 -13 -13 0 -10 59 -74 63 -69 9 13 27 62 27
74 0 15 -49 20 -77 8z"/>
<path d="M5993 5073 c-16 -6 -17 -59 -1 -69 14 -9 38 23 38 53 0 22 -11 27
-37 16z"/>
<path d="M2035 5056 c-16 -12 -17 -17 -6 -45 8 -17 17 -31 22 -31 13 0 29 36
29 64 0 29 -16 33 -45 12z"/>
<path d="M1320 5045 c-15 -18 -5 -68 13 -62 14 4 23 77 9 77 -5 0 -15 -7 -22
-15z"/>
<path d="M1013 4994 c-3 -9 0 -20 8 -25 21 -13 29 -11 29 10 0 24 -29 36 -37
15z"/>
<path d="M1176 5001 c-8 -13 3 -38 19 -45 19 -7 24 4 14 32 -9 23 -24 29 -33
13z"/>
<path d="M6265 4984 c-12 -18 -15 -38 -12 -61 8 -50 24 -65 66 -61 35 3 36 4
35 46 -1 32 -7 50 -29 72 -35 37 -38 37 -60 4z"/>
<path d="M5223 4960 c-31 -13 -29 -42 5 -67 40 -30 59 -16 46 33 -10 42 -18
47 -51 34z"/>
<path d="M1862 4949 c2 -7 10 -15 17 -17 8 -3 12 1 9 9 -2 7 -10 15 -17 17 -8
3 -12 -1 -9 -9z"/>
<path d="M180 4921 c0 -6 5 -13 10 -16 6 -3 10 1 10 9 0 9 -4 16 -10 16 -5 0
-10 -4 -10 -9z"/>
<path d="M1670 4920 c0 -5 5 -10 10 -10 6 0 10 5 10 10 0 6 -4 10 -10 10 -5 0
-10 -4 -10 -10z"/>
<path d="M1794 4895 c-7 -18 3 -35 21 -35 18 0 28 32 13 42 -19 11 -28 10 -34
-7z"/>
<path d="M2052 4868 c2 -13 10 -23 18 -23 8 0 16 10 18 23 3 17 -2 22 -18 22
-16 0 -21 -5 -18 -22z"/>
<path d="M340 4860 c0 -5 9 -10 20 -10 11 0 20 5 20 10 0 6 -9 10 -20 10 -11
0 -20 -4 -20 -10z"/>
<path d="M1650 4850 c-8 -5 -10 -10 -5 -10 6 0 17 5 25 10 8 5 11 10 5 10 -5
0 -17 -5 -25 -10z"/>
<path d="M1927 4830 c-4 -17 -1 -21 16 -18 25 3 30 31 6 36 -10 2 -19 -6 -22
-18z"/>
<path d="M6011 4794 c0 -11 3 -14 6 -6 3 7 2 16 -1 19 -3 4 -6 -2 -5 -13z"/>
<path d="M632 4769 c-12 -18 -11 -24 9 -45 12 -12 19 -30 16 -38 -3 -8 1 -17
9 -20 11 -4 14 5 14 43 0 80 -20 105 -48 60z"/>
<path d="M2272 4763 c-16 -42 -23 -121 -13 -141 5 -9 14 -29 20 -44 12 -32 29
-36 37 -10 3 9 10 25 15 34 5 10 9 29 9 42 0 15 7 27 19 31 32 10 35 99 3 93
-12 -3 -16 -13 -15 -33 2 -28 2 -28 -7 -7 -5 12 -16 25 -25 28 -8 4 -15 12
-15 20 0 24 -17 15 -28 -13z"/>
<path d="M5570 4740 c0 -27 3 -30 29 -30 21 0 32 6 36 20 9 28 -2 40 -36 40
-26 0 -29 -3 -29 -30z"/>
<path d="M1220 4742 c0 -7 -11 -12 -24 -12 -33 0 -37 -9 -23 -53 13 -39 27
-46 47 -22 12 15 17 82 6 92 -3 4 -6 1 -6 -5z"/>
<path d="M285 4730 c-3 -5 -3 -11 2 -11 29 -4 40 -4 55 3 9 5 20 4 23 -2 8
-12 45 -13 45 -1 0 17 -115 28 -125 11z"/>
<path d="M730 4720 c0 -5 5 -10 10 -10 6 0 10 5 10 10 0 6 -4 10 -10 10 -5 0
-10 -4 -10 -10z"/>
<path d="M870 4720 c0 -5 -7 -10 -15 -10 -22 0 -18 -17 5 -23 29 -7 25 -41 -6
-56 -29 -13 -48 -6 -40 15 3 8 3 14 0 14 -2 0 -9 -11 -14 -25 -11 -28 -41 -33
-60 -10 -20 24 -43 19 -33 -7 7 -20 9 -89 3 -130 -3 -25 13 -93 24 -100 8 -5
8 -15 0 -35 -6 -16 -9 -34 -6 -41 7 -23 19 -12 25 24 3 19 12 49 19 65 11 25
17 29 38 24 14 -4 32 -13 41 -21 8 -8 26 -14 39 -14 l23 0 -7 117 c-9 156 -17
223 -27 223 -5 0 -9 -4 -9 -10z"/>
<path d="M357 4664 c-11 -12 13 -44 33 -44 15 0 20 7 20 25 0 20 -5 25 -23 25
-13 0 -27 -3 -30 -6z"/>
<path d="M6620 4630 c-13 -8 -13 -12 0 -36 20 -37 38 -41 50 -10 17 46 -10 72
-50 46z"/>
<path d="M534 4616 c-19 -15 -19 -15 1 -29 25 -19 35 -13 35 19 0 28 -8 30
-36 10z"/>
<path d="M2125 4595 c-17 -20 -29 -24 -48 -20 -20 5 -26 2 -30 -17 -4 -14 -19
-30 -34 -37 -16 -7 -36 -17 -45 -22 -10 -5 -24 -9 -32 -9 -7 0 -19 -7 -27 -16
-7 -8 -21 -13 -30 -11 -10 3 -24 -2 -31 -10 -11 -14 -8 -15 22 -9 94 18 130
29 130 38 0 5 4 7 8 4 5 -3 22 8 39 23 31 28 93 49 93 31 0 -12 27 -13 34 -2
8 13 -5 82 -16 82 -5 0 -20 -11 -33 -25z"/>
<path d="M7175 4601 c-6 -5 -21 -11 -35 -13 -18 -2 -24 -8 -23 -23 8 -66 21
-135 30 -165 7 -19 17 -54 23 -77 25 -98 46 -12 38 159 -6 107 -14 138 -33
119z"/>
<path d="M6378 4563 c-21 -25 -48 -79 -48 -98 0 -8 8 -15 18 -15 10 0 29 -11
42 -25 20 -21 21 -25 7 -31 -30 -11 -62 0 -65 24 -4 28 -26 24 -30 -5 -5 -34
37 -110 101 -181 56 -62 100 -101 83 -74 -4 7 4 14 18 18 25 6 25 8 22 80 -3
58 -9 83 -28 112 -30 45 -53 104 -63 157 -10 55 -30 68 -57 38z"/>
<path d="M2431 4519 c-6 -18 -11 -37 -11 -44 0 -21 45 -65 65 -65 15 0 17 2 7
9 -10 6 -9 10 7 14 16 4 21 13 21 36 0 17 0 34 0 39 1 4 -8 8 -19 10 -11 2
-25 10 -31 18 -18 21 -27 17 -39 -17z"/>
<path d="M240 4510 c0 -5 7 -10 16 -10 8 0 12 5 9 10 -3 6 -10 10 -16 10 -5 0
-9 -4 -9 -10z"/>
<path d="M2360 4466 c0 -9 7 -16 16 -16 9 0 14 5 12 12 -6 18 -28 21 -28 4z"/>
<path d="M2555 4460 c-3 -5 -1 -10 4 -10 6 0 11 5 11 10 0 6 -2 10 -4 10 -3 0
-8 -4 -11 -10z"/>
<path d="M307 4413 c8 -34 8 -53 -2 -75 -4 -11 -3 -18 4 -18 6 0 11 9 11 20 0
15 7 20 25 20 14 0 25 5 25 10 0 6 -4 10 -10 10 -5 0 -10 14 -10 30 0 25 -4
30 -25 30 -23 0 -25 -3 -18 -27z"/>
<path d="M408 4383 c7 -3 16 -2 19 1 4 3 -2 6 -13 5 -11 0 -14 -3 -6 -6z"/>
<path d="M896 4361 c-4 -6 -5 -15 -2 -20 9 -15 -62 -71 -92 -72 -17 -1 -20 -3
-9 -6 9 -2 17 -11 17 -19 0 -12 -8 -13 -35 -8 -23 4 -35 2 -35 -5 0 -6 -11
-17 -25 -23 -34 -15 -31 -29 5 -26 17 1 30 6 30 10 0 4 4 8 8 8 8 0 13 -34 13
-82 0 -26 13 -22 29 7 7 14 19 25 25 25 14 0 105 80 105 92 0 15 -27 8 -64
-17 -37 -25 -66 -32 -66 -17 0 13 23 32 38 32 27 0 91 105 74 122 -6 6 -12 6
-16 -1z"/>
<path d="M480 4340 c0 -5 -9 -10 -19 -10 -29 0 -36 -18 -16 -40 15 -16 15 -22
5 -35 -9 -11 -9 -15 -1 -15 7 0 25 -10 41 -22 16 -12 41 -22 55 -23 24 -1 25
1 23 62 -1 45 -5 63 -15 63 -8 0 -16 7 -19 15 -7 17 -54 21 -54 5z"/>
<path d="M692 4337 c-15 -17 -51 -133 -53 -164 0 -5 -7 -18 -15 -31 -16 -24
-11 -42 11 -42 14 0 19 10 30 70 4 19 15 51 25 70 32 62 33 134 2 97z"/>
<path d="M1970 4306 c0 -25 5 -57 10 -71 6 -15 28 -122 50 -238 22 -117 47
-243 55 -282 8 -38 22 -135 31 -215 9 -80 18 -165 21 -189 2 -24 8 -53 13 -65
8 -20 8 -20 19 8 9 22 9 60 0 150 -6 67 -11 123 -11 126 -1 27 4 40 15 40 7 0
23 9 35 20 25 23 21 36 -23 82 -16 17 -27 42 -29 66 -2 22 -11 55 -19 73 -46
102 -54 182 -20 202 26 16 13 62 -34 115 -12 13 -25 34 -29 46 -16 56 -68 176
-75 176 -5 0 -9 -20 -9 -44z"/>
<path d="M2320 4336 c0 -7 104 -162 143 -214 36 -48 41 -61 49 -135 25 -246
13 -415 -36 -486 -39 -55 -42 -91 -15 -158 35 -87 43 -93 65 -41 10 24 17 56
16 71 -3 39 15 102 32 117 10 8 20 8 33 2 12 -7 25 -7 36 -1 16 10 16 12 -3
39 -11 15 -20 44 -20 64 0 25 -6 38 -19 46 -15 7 -20 24 -24 67 -2 32 -7 67
-9 78 -3 11 2 30 10 42 8 13 12 29 9 38 -4 8 -2 17 4 21 6 3 6 11 1 17 -4 7
-9 25 -10 40 -1 15 -9 41 -17 57 -8 16 -12 36 -9 44 4 9 -5 29 -20 47 -14 17
-24 34 -21 39 6 10 -70 174 -91 195 -13 13 -104 23 -104 11z"/>
<path d="M90 4315 c0 -8 2 -15 4 -15 2 0 6 7 10 15 3 8 1 15 -4 15 -6 0 -10
-7 -10 -15z"/>
<path d="M1561 4313 c1 -10 5 -29 9 -43 7 -22 8 -21 9 12 1 20 -3 40 -9 43 -5
3 -10 -2 -9 -12z"/>
<path d="M359 4317 c0 -1 -2 -12 -3 -24 -3 -28 19 -37 46 -19 19 13 18 14 -11
29 -17 9 -31 15 -32 14z"/>
<path d="M6656 4261 c-20 -63 -21 -61 9 -61 15 0 25 -6 25 -15 0 -11 -5 -12
-26 -5 -36 14 -44 6 -44 -46 0 -37 6 -51 37 -84 45 -51 66 -62 98 -54 25 6 26
9 21 58 -2 28 -13 80 -24 116 -11 36 -24 81 -29 100 -6 24 -15 36 -30 38 -17
2 -23 -6 -37 -47z"/>
<path d="M0 4240 c0 -5 9 -10 20 -10 11 0 20 5 20 10 0 6 -9 10 -20 10 -11 0
-20 -4 -20 -10z"/>
<path d="M7182 4121 c-2 -107 0 -130 13 -135 9 -3 15 0 15 9 0 8 -4 15 -8 15
-5 0 -6 26 -4 58 8 117 7 161 -4 172 -7 7 -11 -28 -12 -119z"/>
<path d="M200 4200 c0 -5 7 -10 16 -10 8 0 12 5 9 10 -3 6 -10 10 -16 10 -5 0
-9 -4 -9 -10z"/>
<path d="M370 4194 c0 -13 -6 -15 -30 -10 -21 4 -30 2 -30 -7 0 -15 152 -47
221 -47 54 1 37 12 -46 30 -33 7 -67 19 -75 25 -31 24 -40 26 -40 9z"/>
<path d="M7140 4174 c0 -8 5 -12 10 -9 6 4 8 11 5 16 -9 14 -15 11 -15 -7z"/>
<path d="M175 4170 c3 -5 11 -10 16 -10 6 0 7 5 4 10 -3 6 -11 10 -16 10 -6 0
-7 -4 -4 -10z"/>
<path d="M4676 4008 c-5 -21 -5 -46 0 -55 6 -15 8 -13 12 10 2 15 2 39 0 55
-4 25 -5 24 -12 -10z"/>
<path d="M68 4013 c7 -3 16 -2 19 1 4 3 -2 6 -13 5 -11 0 -14 -3 -6 -6z"/>
<path d="M346 3961 c-3 -5 7 -11 22 -14 32 -6 42 0 22 13 -19 12 -37 13 -44 1z"/>
<path d="M7156 3953 c-11 -11 -6 -23 9 -23 8 0 15 4 15 9 0 13 -16 22 -24 14z"/>
<path d="M11 3921 c-8 -15 -4 -27 19 -60 17 -22 34 -41 38 -41 5 0 14 11 22
24 11 22 9 27 -23 60 -42 42 -43 42 -56 17z"/>
<path d="M4668 3878 c-4 -66 2 -129 12 -123 10 6 10 164 0 170 -4 3 -10 -18
-12 -47z"/>
<path d="M205 3903 c-27 -7 -45 -23 -45 -39 0 -11 17 -14 67 -14 49 0 71 -5
86 -17 18 -17 19 -17 28 0 6 10 15 14 22 10 7 -4 0 9 -14 28 -23 30 -32 34
-75 36 -27 0 -58 -1 -69 -4z"/>
<path d="M365 3814 c-11 -15 -22 -30 -25 -33 -13 -17 -85 -52 -100 -48 -24 6
-59 -71 -39 -84 8 -5 19 -9 26 -9 25 0 92 42 148 95 56 51 58 55 43 76 -21 32
-30 33 -53 3z"/>
<path d="M1195 3813 c-16 -3 -38 -13 -48 -24 -10 -10 -25 -19 -33 -19 -9 0
-30 -8 -47 -17 -18 -10 -33 -18 -33 -18 -1 0 -4 -10 -8 -21 -9 -28 32 -78 85
-105 47 -24 193 -62 233 -61 37 2 42 7 57 64 11 42 11 50 -9 90 -11 23 -24 51
-27 62 -5 17 -7 16 -32 -8 -14 -14 -31 -26 -38 -26 -6 0 -20 -9 -29 -19 -10
-10 -34 -21 -54 -23 -40 -5 -92 8 -92 23 0 12 34 11 63 -2 50 -23 116 53 81
92 -10 11 -22 18 -28 18 -6 -1 -24 -4 -41 -6z"/>
<path d="M5270 3753 c0 -38 -11 -122 -25 -188 -30 -147 -31 -186 -6 -209 40
-36 62 -19 116 90 28 56 67 127 88 157 44 64 60 133 33 143 -9 3 -23 1 -31 -6
-11 -9 -28 -3 -85 34 -39 25 -75 46 -80 46 -6 0 -10 -30 -10 -67z"/>
<path d="M100 3749 c0 -20 31 -49 53 -49 20 0 21 4 6 32 -11 20 -9 21 22 14
23 -4 30 -3 23 4 -6 6 -31 11 -57 13 -38 2 -47 -1 -47 -14z"/>
<path d="M3310 3741 c0 -5 5 -13 10 -16 6 -3 10 -2 10 4 0 5 -4 13 -10 16 -5
3 -10 2 -10 -4z"/>
<path d="M5613 3733 c-18 -6 -16 -33 1 -33 19 0 31 19 20 30 -5 4 -15 5 -21 3z"/>
<path d="M4945 3543 c-13 -31 -13 -123 -1 -123 7 0 13 26 14 70 3 71 0 84 -13
53z"/>
<path d="M5007 3544 c-4 -4 -7 -17 -7 -28 1 -19 1 -20 11 -3 11 19 8 43 -4 31z"/>
<path d="M250 3420 c0 -5 9 -10 20 -10 11 0 20 5 20 10 0 6 -9 10 -20 10 -11
0 -20 -4 -20 -10z"/>
<path d="M1010 3350 c0 -17 6 -45 14 -63 18 -45 149 -218 231 -305 37 -40 65
-76 61 -79 -3 -3 -1 -12 5 -20 6 -7 9 -13 6 -13 -14 0 -454 62 -532 75 -49 8
-155 24 -235 35 -80 11 -161 25 -180 30 -19 6 -54 10 -77 10 -23 0 -44 4 -48
10 -3 5 -12 7 -19 4 -8 -3 -17 -1 -20 4 -3 6 -15 8 -26 5 -11 -3 -28 1 -37 8
-13 11 -17 11 -21 1 -2 -8 -8 -10 -15 -4 -21 16 -60 26 -52 12 5 -8 -3 -9 -29
-5 l-36 7 0 -227 c0 -205 2 -229 17 -240 17 -13 17 -14 0 -32 -16 -18 -17 -60
-17 -539 l0 -519 57 2 c304 9 289 10 316 -15 l24 -23 17 25 c16 25 38 32 126
40 25 2 100 10 168 17 130 13 217 3 248 -29 18 -18 17 -62 -1 -86 -15 -19 -15
-19 -15 1 0 33 -13 35 -68 6 -63 -32 -78 -58 -30 -50 79 14 176 19 182 9 10
-17 -24 -23 -148 -28 -122 -4 -141 -10 -156 -49 -6 -14 -9 -15 -9 -4 -1 13
-22 15 -156 15 -85 -1 -155 2 -155 6 0 4 17 16 37 27 30 16 34 20 16 21 -13 0
-24 8 -28 22 -7 21 -10 21 -159 14 -83 -3 -177 -9 -208 -12 l-58 -7 0 -703 0
-704 3025 0 c2872 0 3024 1 3018 18 -10 28 -24 42 -44 42 -11 0 -19 6 -19 14
0 7 -7 19 -15 26 -8 7 -15 16 -15 21 0 5 7 9 15 9 8 0 15 2 15 5 0 9 -40 45
-50 45 -5 0 -10 5 -10 10 0 6 -6 10 -14 10 -10 0 -12 7 -8 22 4 18 2 20 -16
16 -20 -6 -38 14 -33 35 1 5 -10 18 -24 29 -14 11 -23 23 -20 28 2 4 -5 19
-16 34 -15 20 -29 26 -58 26 -38 0 -91 -19 -91 -32 0 -5 -5 -8 -10 -8 -6 0
-10 8 -8 18 2 11 -4 17 -17 18 -11 1 -26 2 -32 3 -7 1 -13 7 -13 14 0 17 -70
83 -97 91 -13 4 -23 11 -23 16 0 5 -13 21 -28 37 -16 15 -31 36 -35 46 -4 10
-11 16 -16 12 -6 -3 -14 3 -20 12 -9 17 -13 16 -55 -7 -25 -13 -46 -27 -46
-31 0 -3 -20 -14 -45 -25 -25 -10 -45 -21 -45 -25 0 -7 -40 -16 -108 -25 -20
-2 -52 -9 -71 -14 -19 -5 -37 -8 -39 -5 -2 2 -11 -2 -19 -10 -8 -8 -23 -15
-33 -15 -10 0 -22 -4 -25 -10 -3 -5 -19 -10 -35 -10 -17 0 -33 -7 -39 -17 -7
-14 -12 -15 -24 -5 -11 10 -17 9 -27 -3 -7 -8 -18 -14 -24 -14 -6 1 -20 -2
-30 -6 -13 -6 -30 -3 -50 9 -19 11 -32 14 -34 7 -2 -6 -10 -11 -18 -11 -9 0
-13 -5 -9 -12 4 -7 1 -6 -7 3 -16 19 -91 21 -84 2 6 -15 -10 -18 -19 -3 -3 6
-16 8 -29 4 -13 -3 -31 2 -46 14 -26 20 -109 42 -160 42 -31 0 -63 12 -169 63
l-64 31 -20 -25 c-11 -13 -24 -23 -29 -21 -18 5 -48 -9 -48 -23 0 -23 -56 -35
-112 -25 -27 6 -54 7 -59 4 -5 -3 -12 2 -15 11 -4 9 -13 14 -22 10 -8 -3 -21
0 -30 7 -13 11 -14 10 -4 -8 10 -19 9 -23 -8 -27 -11 -3 -24 1 -31 9 -6 8 -19
14 -28 14 -14 -1 -14 -2 2 -14 28 -21 20 -32 -24 -32 -49 1 -73 29 -42 51 10
7 15 16 12 19 -3 3 -19 -5 -34 -19 -37 -31 -45 -24 -17 15 24 32 16 46 -22 36
-15 -4 -28 0 -36 9 -16 19 -34 19 -50 0 -6 -8 -22 -13 -33 -12 -17 1 -22 -3
-21 -20 1 -30 -14 -29 -26 1 -7 19 -14 22 -36 18 -22 -4 -26 -2 -21 11 3 9 2
19 -3 22 -7 4 -6 13 0 26 8 15 7 19 -3 19 -8 0 -17 -10 -21 -22 -4 -18 -8 -20
-18 -10 -6 6 -27 12 -45 12 -25 0 -31 -4 -27 -15 4 -8 1 -15 -5 -15 -14 0 -14
16 -1 40 6 12 17 16 30 13 11 -3 20 0 20 6 0 6 -4 11 -9 11 -4 0 -9 26 -10 58
0 31 -2 75 -3 97 -1 27 12 75 40 145 23 58 42 110 42 117 0 6 -17 13 -37 15
-34 3 -37 6 -38 33 0 24 -7 33 -32 45 -18 8 -33 20 -33 25 -1 28 -20 39 -64
36 -40 -2 -45 1 -48 21 -6 43 -32 32 -44 -18 -10 -43 -9 -47 13 -61 14 -10 37
-14 60 -11 28 4 48 -1 75 -19 21 -12 42 -23 48 -23 5 0 10 -5 10 -10 0 -7 -7
-7 -22 1 -13 7 -41 9 -71 5 -41 -4 -53 -2 -63 12 -9 13 -16 14 -24 6 -9 -9
-17 -6 -34 11 -27 27 -99 51 -104 35 -7 -19 -40 -10 -45 11 -5 19 -10 21 -51
15 -42 -7 -46 -6 -46 14 0 15 -5 20 -17 18 -24 -4 -80 21 -87 38 -6 16 -33 19
-38 3 -5 -16 -39 1 -36 19 2 10 -5 18 -17 20 -11 2 -28 11 -37 20 -10 8 -18
12 -18 9 0 -10 -74 24 -90 42 -8 9 -16 32 -17 51 -1 19 1 30 5 24 9 -13 72
-36 72 -26 0 4 -18 28 -40 52 -22 24 -43 53 -46 65 -3 11 -13 34 -22 52 -13
27 -14 36 -3 56 9 16 11 39 6 65 l-6 40 -52 0 c-62 0 -87 -6 -87 -20 0 -5 -15
-25 -34 -44 -19 -19 -51 -64 -71 -99 -33 -59 -38 -64 -55 -52 -11 6 -20 15
-20 18 0 21 -84 54 -213 83 -41 10 -67 41 -66 79 1 17 3 24 6 15 2 -10 9 -18
15 -18 10 0 3 184 -8 215 -6 15 -2 16 27 10 19 -4 66 -19 104 -35 122 -48 246
-82 355 -96 149 -20 206 -18 292 10 69 23 79 24 119 12 90 -27 162 -29 248 -7
101 26 105 26 210 -5 187 -55 225 -71 246 -106 15 -26 13 -32 -7 -29 -5 0 -8
-3 -8 -7 0 -10 -22 -12 -152 -14 -122 -2 -121 -3 32 -57 110 -39 120 -45 113
-71 -4 -16 -15 -20 -47 -21 -108 -3 -283 15 -300 32 -14 13 -26 11 -26 -5 0
-18 58 -38 190 -66 100 -21 184 -52 196 -71 10 -16 -50 -31 -101 -26 -27 3
-88 17 -135 32 -132 41 -130 40 -130 17 0 -29 23 -39 110 -44 53 -4 93 -13
135 -33 33 -15 55 -29 48 -32 -13 -5 20 -43 37 -43 22 0 8 -15 -15 -16 -14 -1
-25 2 -25 7 0 16 -18 9 -22 -8 -8 -29 1 -40 27 -35 18 3 25 0 25 -12 0 -11 9
-15 35 -14 20 1 38 5 41 9 2 4 28 5 58 2 29 -3 82 0 118 6 35 6 102 13 148 16
47 3 117 7 157 10 55 5 78 2 96 -9 34 -23 116 -37 138 -23 13 8 21 7 33 -2 13
-11 19 -11 31 -1 11 9 19 10 26 3 8 -8 22 -8 47 -1 30 8 38 7 49 -7 9 -13 16
-15 25 -8 7 6 27 14 45 18 30 6 33 4 47 -29 8 -19 14 -50 13 -68 -1 -23 2 -33
13 -33 8 0 14 5 13 11 -1 6 14 16 34 23 20 8 51 28 69 46 18 18 35 31 37 28 3
-2 18 9 34 25 15 16 43 33 61 37 17 3 32 10 32 14 0 12 63 40 105 47 22 3 77
15 123 25 45 11 87 17 92 14 5 -3 11 -1 15 5 3 5 17 10 30 10 l23 0 -24 48
c-14 26 -34 54 -45 64 -18 16 -27 41 -11 35 8 -2 12 6 12 29 0 13 -3 14 -15 4
-11 -10 -18 -9 -30 3 -8 9 -15 18 -15 22 0 9 51 55 61 55 14 0 10 60 -3 60 -8
1 -6 6 4 14 10 7 18 18 18 25 0 16 11 14 25 -6 11 -15 13 -13 20 15 3 18 10
30 15 27 5 -3 14 11 20 30 6 19 17 34 23 32 7 -1 11 6 9 15 -2 13 7 18 35 23
80 13 81 13 75 -3 -4 -12 0 -14 24 -8 27 7 28 7 11 -12 -18 -19 -14 -34 7 -26
11 4 36 -47 36 -75 0 -6 11 -24 25 -39 14 -15 25 -32 25 -39 0 -7 7 -13 15
-13 8 0 15 -5 15 -11 0 -16 31 -38 53 -39 9 0 17 -5 17 -10 0 -7 10 -6 25 2
27 14 64 79 66 113 0 11 3 14 6 8 7 -18 16 -16 31 8 15 23 0 52 -22 43 -8 -3
-16 4 -19 15 -3 12 -13 21 -22 21 -9 0 -23 7 -31 15 -8 8 -21 12 -28 9 -8 -3
-26 14 -45 43 -20 30 -43 52 -62 58 l-30 10 29 41 c47 64 63 103 65 150 2 53
-4 58 -92 75 -152 27 -151 27 -151 8 0 -49 -35 -90 -116 -140 -88 -53 -166
-75 -232 -65 -21 3 -46 5 -56 6 -11 0 -35 17 -55 38 -20 20 -54 43 -76 51 -22
7 -49 21 -60 31 -20 18 -64 36 -77 32 -5 -1 -8 4 -8 12 0 14 -51 46 -73 46 -5
0 -20 11 -33 25 -13 14 -30 25 -40 25 -14 0 -32 16 -107 98 -17 19 -179 160
-255 223 -7 6 -10 18 -7 28 4 12 -3 22 -22 32 -15 8 -36 23 -48 34 -83 77
-105 99 -105 105 0 5 -20 15 -45 24 l-46 15 -11 -27 c-5 -15 -14 -37 -19 -50
-7 -17 -14 -22 -29 -17 -17 5 -20 2 -20 -23 0 -16 8 -36 17 -43 15 -12 16 -12
11 8 -5 18 0 26 23 37 l29 14 1 -46 c1 -26 3 -57 4 -70 2 -17 -1 -20 -10 -12
-10 8 -14 3 -17 -21 -4 -25 -1 -33 13 -36 37 -10 6 -23 -53 -23 -51 0 -61 3
-65 20 -6 24 -20 26 -25 3 -2 -14 -13 -16 -59 -14 l-56 2 -21 -63 c-37 -112
-70 -175 -107 -205 -19 -15 -35 -34 -35 -40 0 -7 -13 -25 -30 -40 -17 -14 -30
-34 -30 -44 0 -17 -8 -25 -93 -89 -34 -25 -41 -27 -73 -17 -27 8 -37 8 -43 -2
-8 -12 -51 -15 -230 -12 -29 0 -59 6 -67 12 -8 6 -23 9 -35 6 -26 -7 -49 1
-49 18 0 7 13 12 33 12 30 1 120 12 123 16 1 1 5 12 8 25 7 20 4 22 -36 22
-56 0 -67 9 -61 43 4 19 13 29 32 33 105 23 180 64 117 64 -14 0 -26 -4 -26
-10 0 -5 -6 -10 -14 -10 -8 0 -17 -6 -20 -12 -5 -10 -7 -10 -12 0 -3 7 -13 20
-22 29 -10 9 -18 25 -18 35 -1 16 5 18 49 14 28 -3 58 -1 68 4 23 13 31 47 12
54 -12 5 -13 9 -3 21 7 8 10 21 7 28 -8 21 -98 77 -123 77 -14 0 -31 12 -44
30 -12 17 -28 30 -37 30 -19 0 -42 29 -43 53 0 14 -5 17 -22 12 -17 -6 -20 -4
-15 10 4 9 3 25 -3 34 -6 13 -5 24 4 37 12 16 12 20 -3 32 -12 10 -13 15 -3
18 18 8 15 41 -6 48 -9 3 -23 9 -29 12 -10 4 -11 -3 -6 -28 6 -30 5 -32 -11
-19 -10 9 -14 21 -10 34 5 15 3 19 -10 14 -16 -6 -24 8 -60 96 -8 20 -21 37
-28 37 -19 0 -45 -33 -40 -49 3 -9 -2 -11 -16 -7 -18 6 -20 2 -21 -64 -1 -55
2 -72 14 -76 18 -7 20 -41 3 -46 -24 -8 -89 14 -84 28 3 7 0 14 -6 16 -8 3 -7
11 1 27 18 34 9 46 -32 43 -36 -3 -37 -3 -31 27 8 38 -6 57 -48 65 -17 3 -37
14 -44 24 -20 28 -28 6 -29 -82 0 -71 4 -89 27 -132 14 -27 30 -66 33 -87 4
-21 16 -46 26 -55 10 -10 21 -39 24 -67 4 -28 13 -57 21 -66 8 -8 14 -21 14
-27 0 -7 13 -12 29 -12 31 0 57 -22 46 -40 -3 -5 -15 -10 -26 -10 -10 0 -19
-4 -19 -10 0 -13 37 -13 45 0 10 16 37 -9 30 -29 -2 -9 2 -29 10 -45 8 -15 15
-32 15 -38 0 -5 9 -19 20 -31 30 -32 36 -64 15 -87 -14 -16 -17 -30 -11 -74
12 -107 -36 -137 -125 -76 -24 16 -53 30 -64 30 -25 0 -35 7 -64 45 -12 17
-25 28 -28 27 -11 -7 -23 23 -23 56 0 17 -8 40 -17 50 -32 34 -53 62 -52 70 3
17 -2 30 -22 50 -21 24 -22 59 -1 54 9 -1 8 7 -3 28 -14 26 -21 30 -59 30 -48
0 -78 22 -58 42 20 20 13 45 -18 71 -36 30 -37 42 -8 58 17 9 24 9 32 -3 6 -7
18 -12 28 -10 9 2 22 -6 30 -16 19 -27 109 -40 127 -18 12 14 7 22 -28 56 -22
22 -42 48 -43 57 0 10 -2 23 -2 30 -2 14 -44 48 -73 57 -17 5 -23 2 -28 -15
-4 -12 -16 -32 -26 -43 -22 -23 -24 -37 -8 -53 8 -8 5 -15 -11 -26 -20 -14
-25 -13 -62 6 -50 27 -74 61 -91 127 -11 42 -24 61 -68 101 -30 27 -60 49 -67
49 -15 0 -82 67 -75 74 8 8 -31 55 -46 56 -7 0 -11 6 -7 15 4 12 -3 15 -31 15
-52 0 -83 37 -87 105 -4 68 -9 75 -55 75 -33 0 -39 4 -43 25 -5 26 13 50 27
37 5 -4 5 -1 1 6 -4 7 -15 12 -24 10 -17 -3 -82 39 -136 86 -38 34 -46 33 -46
-4z m164 -696 c4 -10 1 -14 -6 -12 -15 5 -23 28 -10 28 5 0 13 -7 16 -16z
m179 -9 c14 -14 13 -54 -2 -56 -74 -10 -111 -7 -135 12 -44 35 -34 48 42 52
37 2 70 4 74 5 4 1 13 -5 21 -13z m-543 -52 c23 -22 23 -24 5 -22 -11 2 -32
-5 -46 -14 -18 -12 -36 -16 -53 -11 -30 7 -34 12 -46 55 l-9 30 62 -7 c47 -5
68 -12 87 -31z m-580 -34 c12 -22 8 -35 -8 -25 -13 8 -22 46 -11 46 4 0 13 -9
19 -21z m3474 -24 c-4 -8 -8 -15 -10 -15 -2 0 -4 7 -4 15 0 8 4 15 10 15 5 0
7 -7 4 -15z m-2204 -216 c13 -24 13 -24 -17 -33 -24 -8 -30 5 -17 38 8 22 21
20 34 -5z m2677 -72 c8 -13 137 -119 183 -150 l24 -17 -49 0 c-28 0 -77 5
-110 10 -33 6 -84 12 -114 15 -30 3 -58 8 -63 11 -10 7 5 36 50 97 36 47 64
59 79 34z m-1467 -7 c0 -5 -4 -10 -10 -10 -5 0 -10 5 -10 10 0 6 5 10 10 10 6
0 10 -4 10 -10z m-896 -157 c21 -25 24 -33 12 -33 -9 0 -16 4 -16 9 0 5 -6 16
-13 23 -7 7 -18 27 -24 43 -10 24 -10 26 0 11 6 -11 25 -34 41 -53z m2641 -55
c14 -6 25 -17 25 -24 0 -7 -36 -39 -81 -71 -44 -32 -117 -88 -162 -125 -80
-65 -82 -66 -85 -41 -3 22 16 45 125 150 70 67 133 123 140 123 7 0 24 -5 38
-12z m-660 -294 c16 -12 20 -30 25 -114 4 -76 9 -103 23 -117 10 -11 17 -13
17 -5 0 7 7 12 16 12 10 0 14 6 11 14 -9 22 17 40 32 22 9 -11 -13 -40 -111
-146 -108 -119 -123 -131 -134 -115 -7 9 -17 14 -23 11 -5 -4 -13 -1 -17 5 -3
6 0 15 7 20 12 7 11 14 -2 41 -58 118 -59 132 -8 230 16 31 29 70 29 86 0 26
6 32 48 50 57 25 62 25 87 6z m-2461 -30 c40 -2 116 -31 116 -45 0 -14 -24
-23 -28 -11 -2 7 -11 12 -20 12 -15 -1 -15 -2 1 -14 9 -7 17 -18 17 -23 0 -6
10 -15 23 -20 21 -10 21 -11 3 -19 -13 -5 -21 -3 -24 4 -2 7 -12 12 -22 12 -9
0 -23 7 -30 15 -7 8 -19 15 -27 15 -7 0 -24 7 -37 15 -13 8 -34 14 -47 13 -15
-2 -24 3 -27 13 -4 23 27 52 47 43 9 -4 33 -9 55 -10z m2773 -9 c-23 -22 -33
-18 -12 5 10 11 20 18 23 16 2 -3 -3 -12 -11 -21z m-47 -11 c0 -26 -18 -50
-70 -94 -50 -42 -50 -42 -50 -16 0 18 7 30 23 36 12 5 18 9 12 9 -11 1 65 81
77 81 4 0 8 -7 8 -16z m-2380 -34 c0 -5 -4 -10 -10 -10 -5 0 -10 5 -10 10 0 6
5 10 10 10 6 0 10 -4 10 -10z m-610 -100 c12 -8 12 -11 -2 -27 -8 -10 -13 -23
-11 -30 2 -7 0 -20 -6 -30 -10 -17 -10 -17 -11 2 0 11 -3 37 -6 58 -7 39 4 47
36 27z m40 -44 c0 -3 -4 -8 -10 -11 -5 -3 -10 -1 -10 4 0 6 5 11 10 11 6 0 10
-2 10 -4z m-100 -146 c0 -5 -4 -10 -10 -10 -5 0 -10 5 -10 10 0 6 5 10 10 10
6 0 10 -4 10 -10z m1290 -4 c0 -3 -4 -8 -10 -11 -5 -3 -10 -1 -10 4 0 6 5 11
10 11 6 0 10 -2 10 -4z m-1380 -36 c0 -5 -9 -10 -20 -10 -11 0 -20 5 -20 10 0
6 9 10 20 10 11 0 20 -4 20 -10z m1490 -54 c0 -3 -4 -8 -10 -11 -5 -3 -10 -1
-10 4 0 6 5 11 10 11 6 0 10 -2 10 -4z m906 -63 c-6 -6 -36 9 -36 18 0 5 9 4
20 -3 10 -7 18 -14 16 -15z m-966 -93 c0 -13 -11 -13 -30 0 -12 8 -11 10 8 10
12 0 22 -4 22 -10z m-1222 -47 c2 -9 -7 -13 -28 -13 -28 0 -31 2 -20 15 15 18
41 16 48 -2z m1365 3 c21 -16 22 -35 2 -42 -20 -8 -11 -20 30 -40 19 -9 35
-20 35 -25 0 -12 -47 -11 -55 1 -3 6 -26 10 -51 10 -67 0 -102 43 -46 56 15 4
36 14 47 22 16 11 16 13 3 9 -18 -6 -24 3 -11 16 10 10 26 8 46 -7z m-168 -16
c3 -5 -1 -10 -9 -10 -8 0 -18 5 -21 10 -3 6 1 10 9 10 8 0 18 -4 21 -10z m256
-10 c24 -13 25 -31 2 -27 -26 4 -44 17 -38 28 8 11 12 11 36 -1z m-1571 -20
c-8 -5 -19 -10 -25 -10 -5 0 -3 5 5 10 8 5 20 10 25 10 6 0 3 -5 -5 -10z m80
-60 c0 -5 -7 -10 -15 -10 -8 0 -15 5 -15 10 0 6 7 10 15 10 8 0 15 -4 15 -10z
m158 -16 c25 -7 11 -25 -20 -23 -18 1 -37 0 -43 -1 -15 -5 -65 18 -65 30 0 9
92 5 128 -6z m1090 -210 c87 -18 116 -30 106 -46 -6 -10 -75 -5 -133 9 -17 4
-22 2 -17 -6 4 -7 -2 -15 -16 -20 -30 -11 -46 -2 -24 14 15 11 14 13 -9 19
-16 4 -25 13 -25 26 0 25 16 25 118 4z m413 -7 c-13 -13 -26 -3 -16 12 3 6 11
8 17 5 6 -4 6 -10 -1 -17z m-961 -28 c0 -10 -2 -19 -4 -19 -11 0 -36 33 -31
40 9 15 35 -1 35 -21z m210 -19 c0 -5 -4 -10 -9 -10 -6 0 -13 5 -16 10 -3 6 1
10 9 10 9 0 16 -4 16 -10z m415 -30 c-3 -5 -12 -10 -18 -10 -7 0 -6 4 3 10 19
12 23 12 15 0z m182 4 c-3 -3 -12 -4 -19 -1 -8 3 -5 6 6 6 11 1 17 -2 13 -5z
m753 -164 c0 -5 -4 -10 -10 -10 -5 0 -10 5 -10 10 0 6 5 10 10 10 6 0 10 -4
10 -10z m-3172 -128 c2 -7 -3 -12 -12 -12 -9 0 -16 7 -16 16 0 17 22 14 28 -4z
m2952 -187 c0 -8 -4 -15 -9 -15 -13 0 -22 16 -14 24 11 11 23 6 23 -9z m577
-70 c0 -8 -4 -15 -9 -15 -10 0 -11 14 -1 23 9 10 10 9 10 -8z"/>
<path d="M1245 2610 c-3 -5 1 -10 10 -10 9 0 13 5 10 10 -3 6 -8 10 -10 10 -2
0 -7 -4 -10 -10z"/>
<path d="M3748 1672 c-21 -4 -21 -3 -19 -107 1 -86 8 -101 40 -90 20 6 21 13
20 96 -2 91 -10 109 -41 101z m22 -152 c0 -5 -5 -10 -11 -10 -5 0 -7 5 -4 10
3 6 8 10 11 10 2 0 4 -4 4 -10z"/>
<path d="M275 3270 c3 -5 11 -10 16 -10 6 0 7 5 4 10 -3 6 -11 10 -16 10 -6 0
-7 -4 -4 -10z"/>
<path d="M412 3258 c6 -18 28 -21 28 -4 0 9 -7 16 -16 16 -9 0 -14 -5 -12 -12z"/>
<path d="M290 3240 c-9 -6 -10 -10 -3 -10 6 0 15 5 18 10 8 12 4 12 -15 0z"/>
<path d="M448 3239 c-20 -11 -24 -39 -7 -39 7 0 18 8 25 18 24 31 15 41 -18
21z"/>
<path d="M390 3223 c1 -18 18 -35 24 -24 4 6 4 16 1 21 -7 12 -25 13 -25 3z"/>
<path d="M28 3213 c6 -2 18 -2 25 0 6 3 1 5 -13 5 -14 0 -19 -2 -12 -5z"/>
<path d="M2151 3194 c0 -11 3 -14 6 -6 3 7 2 16 -1 19 -3 4 -6 -2 -5 -13z"/>
<path d="M9 3179 c-6 -3 -9 -15 -7 -25 3 -17 12 -20 48 -15 6 0 10 12 10 25 0
19 -5 24 -20 23 -12 -1 -26 -4 -31 -8z"/>
<path d="M418 3168 c9 -9 15 -9 24 0 9 9 7 12 -12 12 -19 0 -21 -3 -12 -12z"/>
<path d="M5086 2891 c-7 -11 18 -33 27 -24 4 3 7 12 7 20 0 15 -26 18 -34 4z"/>
<path d="M5076 2762 c-7 -11 39 -52 58 -52 22 0 26 27 7 44 -19 17 -56 21 -65
8z"/>
<path d="M5154 2629 c-7 -12 37 -52 46 -42 3 3 -1 8 -7 10 -7 3 -13 11 -13 18
0 19 -17 28 -26 14z"/>
<path d="M3056 2621 c-3 -5 1 -12 10 -15 20 -8 29 -1 19 13 -8 13 -22 14 -29
2z"/>
<path d="M5192 2561 c-21 -13 -10 -54 20 -70 30 -17 36 -15 41 19 2 13 9 26
16 28 9 3 9 7 0 18 -13 15 -57 18 -77 5z"/>
<path d="M6134 1780 c3 -19 8 -61 12 -92 3 -32 10 -58 15 -58 12 0 1 88 -18
144 -13 40 -13 40 -9 6z"/>
<path d="M6401 1494 c0 -11 3 -14 6 -6 3 7 2 16 -1 19 -3 4 -6 -2 -5 -13z"/>
<path d="M5244 1437 c-10 -5 -34 -25 -53 -43 l-34 -34 42 0 c41 0 121 32 121
49 0 24 -50 42 -76 28z"/>
<path d="M718 1417 c-50 -23 -64 -47 -27 -47 31 0 79 32 79 52 0 10 -1 18 -2
17 -2 0 -24 -10 -50 -22z"/>
<path d="M3136 1238 c9 -57 21 -79 40 -71 11 4 12 9 5 16 -6 6 -11 18 -11 27
0 21 -23 70 -33 70 -4 0 -4 -19 -1 -42z"/>
<path d="M6556 1228 c-17 -82 -15 -91 31 -134 43 -41 83 -61 83 -43 0 5 6 9
14 9 15 0 16 2 16 89 0 67 -11 87 -51 95 -62 12 -88 8 -93 -16z"/>
<path d="M6410 1080 c0 -5 5 -10 10 -10 6 0 10 5 10 10 0 6 -4 10 -10 10 -5 0
-10 -4 -10 -10z"/>
<path d="M6890 1030 c0 -5 5 -10 10 -10 6 0 10 5 10 10 0 6 -4 10 -10 10 -5 0
-10 -4 -10 -10z"/>
<path d="M6682 941 c-36 -33 -40 -65 -14 -96 41 -49 93 -30 91 33 -2 91 -27
111 -77 63z"/>
<path d="M6466 772 c-3 -6 -1 -14 5 -17 15 -10 25 3 12 16 -7 7 -13 7 -17 1z"/>
<path d="M6916 751 c-4 -5 -2 -12 3 -15 5 -4 12 -2 15 3 4 5 2 12 -3 15 -5 4
-12 2 -15 -3z"/>
<path d="M6710 560 c0 -5 5 -10 10 -10 6 0 10 5 10 10 0 6 -4 10 -10 10 -5 0
-10 -4 -10 -10z"/>
<path d="M6891 361 c-41 -35 -49 -61 -18 -61 18 0 98 80 91 91 -10 16 -28 9
-73 -30z"/>
<path d="M7077 303 c-3 -16 -3 -30 -1 -32 8 -8 34 22 34 40 0 29 -27 22 -33
-8z"/>
<path d="M7106 261 c-3 -5 1 -14 9 -21 13 -10 15 -9 15 9 0 21 -14 28 -24 12z"/>
</g>
</svg>
